<?xml version="1.0" encoding="UTF-8" standalone="no"?>
<!DOCTYPE svg PUBLIC "-//W3C//DTD SVG 1.1//EN" "http://www.w3.org/Graphics/SVG/1.1/DTD/svg11.dtd">
<svg version="1.1" xmlns="http://www.w3.org/2000/svg" xmlns:xlink="http://www.w3.org/1999/xlink" preserveAspectRatio="xMidYMid meet" viewBox="0 0 640 640" width="90pt">
	<defs>
		<path d="M34.93 11.47C22 13.47 7.2 23.2 4.67 31.6C4.27 33.33 2.93 34.67 1.87 34.67C0.27 34.67 0 39.2 0 62.8C0 64.67 0 74 0 90.8C2.56 90.56 3.98 90.43 4.27 90.4C10 89.87 10.4 88 10.53 62C10.67 40.8 10.67 40.67 14.53 34.8C18.67 28.53 26.67 23.33 34 21.87C40.13 20.8 42.67 22.93 42.67 29.2C42.67 31.87 43.33 34.8 44.27 35.73C46.4 37.87 65.6 37.87 67.73 35.73C68.8 34.67 69.33 28.53 69.33 17.07C69.33 15.93 69.33 10.24 69.33 0C61.33 0 56.89 0 56 0C42.8 0 42.67 0 42.67 3.2C42.67 9.07 41.33 10.53 34.93 11.47Z" id="c1Vqr2dnrs"></path>
		<path d="M117.33 18.67C117.33 36.8 117.73 37.33 131.07 37.33C136.4 37.33 141.47 36.8 142.4 36.13C143.47 35.6 144.53 32.53 144.93 29.47C145.6 25.07 146.4 23.47 149.07 22.53C155.2 20.13 166.93 25.87 172.67 33.87C172.93 34.23 174.27 36.05 176.67 39.33C176.67 65.33 176.67 79.78 176.67 82.67C176.67 124.8 176.53 126.13 173.73 132.53C172 136.13 170.67 139.73 170.67 140.53C170.67 143.33 159.73 158.67 152.8 165.73C124.53 194.4 81.6 198.93 47.33 176.8C43.6 174.4 27.73 158.8 24.67 154.53C23.33 152.67 18.53 143.07 14 132.67C12.67 129.6 11.33 122.13 10.8 114.93C9.87 101.87 8.27 98.67 2.4 98.67C0.27 98.67 0 100.13 0 113.87C0 125.87 0.4 129.2 1.87 129.73C2.93 130.13 4.27 132.8 4.8 135.6C6 141.6 12.8 155.2 19.2 163.73C32 181.07 52.93 194.4 74 198.67C85.33 200.93 86.67 202.53 86.67 213.2C86.67 222.4 88.93 228 92.8 228C95.6 228 97.33 222.27 97.33 212.8C97.33 207.2 98 203.87 99.2 202.8C100.13 202 106.53 200.13 113.2 198.67C120 197.2 126.53 195.33 127.73 194.67C128.93 194 132.13 192.53 134.67 191.33C140.67 188.8 143.07 187.2 151.33 180.67C167.6 167.6 175.33 156.67 182.93 135.33C183.18 134.62 184.43 131.07 186.67 124.67C186.67 98.67 186.67 84.22 186.67 81.33C186.67 46 186.27 37.33 184.67 34.67C183.6 32.8 182.13 30 181.47 28.53C178.4 21.6 165.6 14.4 150.67 10.93C146.67 10 145.87 9.07 144.8 4.93C144.71 4.6 144.27 2.96 143.47 0C136.11 0 132.02 0 131.2 0C121.2 0 118.8 0.4 118.13 2.13C117.73 3.33 117.33 10.67 117.33 18.67Z" id="bBkTatIW6"></path>
		<path d="M122.57 49.63L122.8 49.65L123.03 49.68L123.26 49.71L123.49 49.75L123.72 49.79L123.96 49.84L124.2 49.9L124.44 49.97L124.69 50.04L124.94 50.12L125.2 50.21L125.46 50.3L125.73 50.41L126.01 50.51L126.3 50.63L126.59 50.76L126.9 50.89L127.21 51.03L127.53 51.18L127.87 51.33L128.69 51.72L129.49 52.12L130.26 52.53L131 52.95L131.72 53.39L132.4 53.84L133.06 54.3L133.69 54.78L134.29 55.27L134.87 55.77L135.42 56.29L135.93 56.81L136.43 57.36L136.89 57.91L137.32 58.48L137.73 59.06L138.11 59.66L138.46 60.27L138.79 60.9L139.08 61.53L139.35 62.19L139.59 62.85L139.81 63.53L139.99 64.23L140.15 64.93L140.28 65.66L140.38 66.4L140.46 67.15L140.5 67.91L140.52 68.7L140.51 69.49L140.48 70.3L140.42 71.13L140.32 71.97L140.21 72.83L140.06 73.7L139.89 74.58L139.68 75.48L139.46 76.4L139.2 77.33L139.11 77.66L139.02 77.99L138.92 78.32L138.83 78.64L138.73 78.96L138.64 79.28L138.54 79.59L138.44 79.9L138.35 80.21L138.25 80.51L138.15 80.81L138.05 81.1L137.95 81.39L137.86 81.67L137.76 81.95L137.66 82.22L137.57 82.48L137.47 82.74L137.38 82.99L137.28 83.23L137.19 83.47L137.1 83.7L137.01 83.92L136.92 84.13L136.84 84.33L136.76 84.53L136.67 84.71L136.6 84.89L136.52 85.05L136.44 85.21L136.37 85.35L136.3 85.49L136.24 85.61L136.17 85.72L136.11 85.82L136.06 85.91L136 85.98L135.95 86.05L135.91 86.1L135.87 86.13L135.75 86.21L135.64 86.28L135.54 86.36L135.44 86.45L135.35 86.54L135.26 86.63L135.18 86.73L135.11 86.82L135.05 86.92L134.99 87.03L134.93 87.13L134.89 87.24L134.85 87.34L134.81 87.45L134.78 87.56L134.76 87.66L134.75 87.77L134.74 87.88L134.73 87.98L134.73 88.08L134.74 88.18L134.76 88.28L134.78 88.38L134.8 88.48L134.83 88.57L134.87 88.65L134.91 88.74L134.96 88.82L135.02 88.89L135.08 88.96L135.15 89.03L135.22 89.09L135.3 89.14L135.38 89.19L135.47 89.23L135.56 89.27L135.66 89.3L135.77 89.32L135.88 89.33L136 89.33L136.06 89.33L136.12 89.33L136.18 89.32L136.23 89.31L136.29 89.29L136.34 89.27L136.39 89.25L136.45 89.23L136.5 89.2L136.55 89.17L136.59 89.14L136.64 89.1L136.69 89.07L136.73 89.02L136.77 88.98L136.81 88.94L136.86 88.89L136.89 88.84L136.93 88.79L136.97 88.73L137 88.68L137.03 88.62L137.06 88.56L137.09 88.5L137.12 88.43L137.15 88.37L137.17 88.3L137.2 88.24L137.22 88.17L137.24 88.1L137.26 88.02L137.27 87.95L137.29 87.88L137.3 87.8L137.31 87.73L137.32 87.65L137.32 87.57L137.33 87.49L137.33 87.41L137.33 87.33L137.34 87.23L137.34 87.14L137.36 87.04L137.38 86.95L137.4 86.86L137.43 86.78L137.47 86.69L137.51 86.61L137.56 86.53L137.62 86.46L137.68 86.38L137.75 86.31L137.82 86.24L137.9 86.17L137.99 86.11L138.08 86.04L138.18 85.98L138.29 85.93L138.4 85.87L138.52 85.82L138.64 85.77L138.78 85.72L138.91 85.67L139.06 85.62L139.21 85.58L139.38 85.54L139.54 85.5L139.72 85.47L139.9 85.43L140.09 85.4L140.29 85.37L140.49 85.35L140.7 85.32L140.92 85.3L141.15 85.28L141.38 85.26L141.63 85.24L141.88 85.22L142.13 85.21L142.4 85.2L143.3 85.17L144.16 85.15L144.99 85.13L145.78 85.11L146.54 85.1L147.26 85.09L147.95 85.09L148.62 85.1L149.25 85.11L149.85 85.13L150.43 85.15L150.98 85.18L151.51 85.22L152.02 85.26L152.5 85.31L152.96 85.37L153.41 85.44L153.83 85.52L154.24 85.6L154.63 85.7L155.01 85.8L155.38 85.92L155.73 86.04L156.07 86.18L156.4 86.33L156.73 86.48L157.04 86.65L157.35 86.83L157.66 87.02L157.96 87.23L158.26 87.44L158.56 87.67L158.86 87.91L159.16 88.17L159.47 88.44L159.77 88.72L160.09 89.02L160.41 89.33L160.73 89.66L161.07 90L161.34 90.3L161.6 90.58L161.85 90.86L162.09 91.13L162.32 91.4L162.54 91.66L162.75 91.92L162.94 92.17L163.13 92.41L163.31 92.66L163.48 92.9L163.63 93.14L163.78 93.38L163.93 93.62L164.06 93.85L164.18 94.09L164.3 94.33L164.41 94.57L164.51 94.82L164.6 95.07L164.69 95.32L164.77 95.58L164.84 95.84L164.91 96.11L164.97 96.38L165.02 96.66L165.07 96.95L165.12 97.25L165.16 97.56L165.19 97.88L165.22 98.2L165.25 98.54L165.27 98.89L165.29 99.26L165.3 99.63L165.31 100.02L165.32 100.43L165.33 100.85L165.33 101.28L165.33 101.73L165.33 102.18L165.33 102.6L165.32 103.02L165.31 103.41L165.3 103.8L165.28 104.17L165.26 104.53L165.24 104.88L165.21 105.22L165.18 105.55L165.15 105.86L165.11 106.17L165.07 106.47L165.02 106.75L164.97 107.03L164.91 107.31L164.85 107.57L164.78 107.83L164.71 108.09L164.63 108.33L164.55 108.58L164.46 108.81L164.37 109.05L164.27 109.28L164.16 109.51L164.05 109.73L163.93 109.96L163.8 110.18L163.67 110.4L163.53 110.62L163.39 110.84L163.23 111.06L163.07 111.29L162.91 111.51L162.73 111.74L162.55 111.97L162.36 112.21L162.16 112.44L161.95 112.69L161.73 112.93L161.26 113.42L160.77 113.89L160.26 114.36L159.73 114.81L159.19 115.25L158.63 115.68L158.05 116.1L157.45 116.51L156.85 116.9L156.23 117.29L155.59 117.65L154.95 118.01L154.29 118.35L153.62 118.68L152.95 119L152.27 119.3L151.57 119.58L150.88 119.85L150.17 120.11L149.47 120.35L148.75 120.57L148.04 120.78L147.32 120.98L146.6 121.15L145.88 121.31L145.17 121.45L144.45 121.58L143.73 121.68L143.02 121.77L142.31 121.84L141.6 121.89L140.9 121.92L140.21 121.94L139.52 121.93L138.84 121.9L138.17 121.86L137.51 121.79L136.86 121.7L136.23 121.6L135.6 121.47L135.14 121.36L134.7 121.27L134.28 121.18L133.88 121.11L133.5 121.05L133.14 121L132.8 120.96L132.48 120.94L132.17 120.92L131.89 120.92L131.62 120.94L131.37 120.96L131.14 121.01L130.92 121.06L130.72 121.13L130.54 121.22L130.38 121.32L130.23 121.43L130.1 121.57L129.98 121.72L129.88 121.88L129.8 122.07L129.73 122.27L129.68 122.48L129.64 122.72L129.61 122.98L129.6 123.25L129.61 123.54L129.62 123.85L129.66 124.19L129.7 124.54L129.76 124.91L129.83 125.3L129.91 125.72L130.01 126.15L130.12 126.61L130.24 127.09L130.37 127.59L130.51 128.12L130.67 128.67L130.81 129.18L130.95 129.68L131.07 130.17L131.18 130.65L131.28 131.12L131.37 131.58L131.46 132.03L131.52 132.47L131.58 132.9L131.63 133.32L131.66 133.74L131.69 134.15L131.7 134.55L131.7 134.94L131.69 135.33L131.67 135.72L131.64 136.1L131.59 136.48L131.54 136.85L131.47 137.22L131.39 137.58L131.29 137.95L131.19 138.31L131.07 138.67L130.94 139.03L130.8 139.39L130.64 139.75L130.48 140.11L130.3 140.47L130.1 140.84L129.9 141.2L129.68 141.57L129.45 141.94L129.21 142.32L128.95 142.69L128.68 143.08L128.4 143.47L128.1 143.86L127.79 144.26L127.47 144.67L127.43 144.71L127.4 144.74L126.99 145.26L125.32 147.35L125.2 147.5L124.27 148.67L115.31 148.72L101.87 148.8L100.28 148.82L98.78 148.84L97.34 148.85L95.98 148.87L94.68 148.88L93.45 148.88L92.28 148.89L91.18 148.89L90.13 148.89L89.14 148.89L88.2 148.88L87.32 148.86L86.48 148.85L85.69 148.82L84.95 148.8L84.25 148.77L83.59 148.73L82.97 148.69L82.38 148.64L81.83 148.58L81.31 148.52L80.82 148.46L80.36 148.38L79.92 148.3L79.5 148.21L79.11 148.12L78.73 148.01L78.37 147.9L78.02 147.78L77.68 147.66L77.35 147.52L77.03 147.37L76.71 147.22L76.39 147.06L76.07 146.88L75.75 146.7L75.43 146.51L75.1 146.3L74.75 146.09L74.4 145.87L74.04 145.63L73.7 145.41L73.37 145.19L73.06 144.99L72.77 144.79L72.5 144.6L72.23 144.41L71.99 144.22L71.76 144.04L71.54 143.86L71.34 143.67L71.15 143.49L70.97 143.3L70.8 143.11L70.65 142.91L70.51 142.7L70.37 142.49L70.25 142.26L70.14 142.03L70.03 141.78L69.94 141.52L69.85 141.25L69.77 140.96L69.7 140.65L69.63 140.33L69.57 139.98L69.51 139.62L69.46 139.23L69.42 138.82L69.38 138.39L69.34 137.92L69.3 137.44L69.27 136.92L69.24 136.37L69.21 135.8L69.18 135.19L69.15 134.54L69.12 133.86L69.1 133.15L69.07 132.4L68.67 122L60.53 121.73L59.65 121.7L58.78 121.64L57.92 121.58L57.08 121.5L56.25 121.4L55.43 121.29L54.63 121.17L53.84 121.03L53.06 120.88L52.3 120.71L51.55 120.53L50.81 120.34L50.09 120.13L49.38 119.9L48.69 119.67L48.01 119.41L47.34 119.15L46.69 118.87L46.06 118.57L45.43 118.27L44.83 117.94L44.23 117.61L43.65 117.26L43.09 116.89L42.54 116.52L42.01 116.13L41.49 115.72L40.98 115.3L40.49 114.87L40.02 114.42L39.56 113.96L39.12 113.49L38.69 113L38.28 112.5L37.88 111.98L37.5 111.45L37.13 110.91L36.79 110.35L36.45 109.78L36.13 109.2L35.87 108.7L35.62 108.21L35.39 107.73L35.17 107.26L34.97 106.8L34.78 106.36L34.6 105.92L34.44 105.49L34.3 105.07L34.17 104.65L34.06 104.25L33.96 103.84L33.88 103.45L33.81 103.05L33.76 102.66L33.72 102.27L33.7 101.89L33.7 101.5L33.71 101.12L33.73 100.73L33.78 100.35L33.84 99.96L33.91 99.57L34 99.18L34.11 98.78L34.23 98.38L34.37 97.97L34.53 97.56L34.71 97.14L34.9 96.71L35.1 96.28L35.33 95.83L35.57 95.38L35.83 94.91L36.1 94.44L36.39 93.95L36.7 93.45L37.03 92.94L37.37 92.41L37.73 91.87L38.02 91.45L38.31 91.05L38.62 90.66L38.93 90.29L39.25 89.92L39.58 89.57L39.92 89.23L40.28 88.91L40.64 88.6L41 88.3L41.38 88.01L41.77 87.73L42.17 87.47L42.57 87.22L42.99 86.99L43.41 86.76L43.85 86.55L44.29 86.36L44.74 86.17L45.2 86L45.67 85.84L46.15 85.7L46.64 85.56L47.13 85.44L47.64 85.34L48.15 85.24L48.67 85.16L49.21 85.1L49.75 85.04L50.3 85L50.85 84.98L51.42 84.96L52 84.96L52.58 84.98L53.17 85L53.77 85.04L54.39 85.09L55 85.16L55.63 85.24L56.27 85.33L56.82 85.41L57.36 85.48L57.87 85.53L58.35 85.58L58.81 85.62L59.24 85.65L59.65 85.67L60.04 85.68L60.41 85.68L60.75 85.66L61.07 85.64L61.36 85.61L61.63 85.56L61.88 85.5L62.11 85.43L62.31 85.35L62.5 85.25L62.66 85.14L62.8 85.02L62.92 84.88L63.01 84.73L63.09 84.57L63.14 84.39L63.18 84.2L63.19 83.99L63.19 83.77L63.16 83.53L63.11 83.28L63.05 83.01L62.96 82.73L62.86 82.43L62.73 82.11L62.59 81.77L62.42 81.42L62.24 81.05L62.04 80.66L61.83 80.26L61.59 79.84L61.34 79.39L61.07 78.93L60.91 78.68L60.76 78.44L60.62 78.19L60.48 77.95L60.35 77.71L60.22 77.47L60.1 77.23L59.99 76.99L59.88 76.75L59.78 76.51L59.68 76.27L59.59 76.03L59.5 75.79L59.42 75.55L59.35 75.31L59.28 75.07L59.21 74.82L59.15 74.57L59.1 74.32L59.05 74.07L59 73.81L58.96 73.55L58.93 73.29L58.9 73.02L58.87 72.75L58.85 72.47L58.83 72.19L58.81 71.91L58.8 71.62L58.8 71.32L58.8 71.02L58.8 70.71L58.8 70.4L58.81 70.08L58.82 69.75L58.84 69.41L58.86 69.07L58.88 68.72L58.9 68.37L58.93 68L59 67.43L59.08 66.88L59.16 66.33L59.26 65.79L59.37 65.26L59.49 64.73L59.62 64.22L59.77 63.71L59.92 63.21L60.09 62.72L60.26 62.24L60.45 61.77L60.65 61.3L60.86 60.85L61.08 60.4L61.32 59.96L61.56 59.53L61.82 59.1L62.09 58.69L62.37 58.28L62.66 57.88L62.96 57.49L63.27 57.11L63.6 56.74L63.94 56.37L64.28 56.02L64.64 55.67L65.02 55.33L65.4 54.99L65.8 54.67L66.2 54.35L66.62 54.04L67.05 53.74L67.5 53.45L67.95 53.17L68.42 52.89L68.89 52.62L69.38 52.36L69.89 52.11L70.4 51.87L70.88 51.64L71.35 51.43L71.81 51.23L72.25 51.04L72.68 50.87L73.1 50.7L73.51 50.55L73.91 50.41L74.3 50.28L74.69 50.17L75.06 50.07L75.43 49.97L75.8 49.9L76.16 49.83L76.52 49.77L76.87 49.73L77.23 49.7L77.58 49.68L77.93 49.68L78.28 49.68L78.64 49.7L78.99 49.73L79.35 49.78L79.71 49.83L80.08 49.9L80.45 49.98L80.83 50.07L81.21 50.18L81.61 50.29L82.01 50.42L82.42 50.56L82.84 50.72L83.27 50.89L83.71 51.06L84.17 51.26L84.64 51.46L85.12 51.68L85.62 51.9L86.14 52.15L86.67 52.4L87.01 52.57L87.35 52.74L87.67 52.91L87.99 53.08L88.3 53.25L88.6 53.42L88.89 53.59L89.17 53.77L89.45 53.94L89.71 54.12L89.98 54.3L90.23 54.49L90.48 54.67L90.72 54.86L90.95 55.06L91.18 55.25L91.41 55.45L91.63 55.66L91.84 55.87L92.05 56.08L92.26 56.3L92.46 56.53L92.65 56.76L92.85 57L93.04 57.24L93.23 57.49L93.41 57.75L93.6 58.02L93.78 58.29L93.96 58.57L94.14 58.86L94.32 59.15L94.49 59.46L94.67 59.77L94.85 60.1L95.02 60.43L95.2 60.77L95.38 61.13L95.55 61.49L95.73 61.87L98.93 68.4L101.2 64.53L101.53 64.01L101.87 63.49L102.21 62.98L102.56 62.47L102.92 61.97L103.27 61.48L103.64 61L104 60.53L104.37 60.07L104.75 59.61L105.13 59.16L105.51 58.72L105.9 58.29L106.28 57.87L106.68 57.46L107.07 57.05L107.47 56.66L107.87 56.27L108.28 55.9L108.68 55.53L109.09 55.18L109.5 54.83L109.92 54.5L110.33 54.17L110.75 53.86L111.16 53.56L111.58 53.27L112 52.99L112.42 52.72L112.84 52.46L113.27 52.21L113.69 51.98L114.11 51.75L114.53 51.54L114.96 51.34L115.38 51.16L115.8 50.98L116.22 50.82L116.65 50.67L117.07 50.53L117.42 50.44L117.76 50.34L118.09 50.26L118.41 50.17L118.72 50.1L119.02 50.03L119.31 49.96L119.6 49.9L119.87 49.84L120.14 49.8L120.4 49.75L120.66 49.71L120.91 49.68L121.16 49.66L121.4 49.64L121.64 49.62L121.87 49.62L122.1 49.62L122.34 49.62L122.57 49.63ZM98.36 106.73L97.63 106.9L96.9 107.14L96.16 107.45L95.41 107.82L94.65 108.26L93.88 108.76L93.09 109.33L92.29 109.97L91.47 110.67L90.41 111.66L89.38 112.72L88.37 113.85L87.4 115.03L86.46 116.26L85.55 117.53L84.69 118.82L83.88 120.14L83.12 121.47L82.41 122.81L81.76 124.14L81.17 125.45L80.64 126.74L80.19 128L79.8 129.22L79.5 130.39L79.27 131.5L79.13 132.55L79.08 133.52L79.11 134.4L79.25 135.2L79.48 135.89L79.82 136.47L80.27 136.93L80.64 137.1L81.31 137.25L82.24 137.4L83.42 137.54L84.81 137.67L86.4 137.79L88.16 137.9L90.06 138L92.07 138.09L94.18 138.17L96.35 138.23L98.57 138.28L100.8 138.32L103.01 138.35L105.2 138.36L107.32 138.36L109.35 138.34L111.28 138.3L113.07 138.25L114.69 138.18L116.13 138.1L117.36 138L118.34 137.87L119.07 137.73L119.68 137.5L120.18 137.13L120.58 136.63L120.88 136.02L121.07 135.3L121.17 134.49L121.18 133.58L121.1 132.58L120.93 131.52L120.68 130.38L120.35 129.19L119.93 127.95L119.45 126.67L118.89 125.35L118.26 124.02L117.57 122.66L116.81 121.3L115.99 119.94L115.12 118.59L114.19 117.25L113.21 115.95L112.18 114.67L111.11 113.45L110 112.27L109.11 111.42L108.25 110.64L107.41 109.93L106.59 109.29L105.79 108.71L105 108.21L104.23 107.77L103.48 107.41L102.73 107.11L101.99 106.88L101.26 106.71L100.53 106.62L99.81 106.59L99.09 106.63L98.36 106.73ZM77.05 60.35L76.04 60.74L75 61.27L73.92 61.96L72.8 62.8L71.82 63.67L71 64.6L70.33 65.61L69.82 66.67L69.47 67.79L69.27 68.96L69.23 70.17L69.36 71.41L69.64 72.69L70.08 73.99L70.68 75.31L71.45 76.65L72.38 77.99L73.47 79.33L74.65 80.65L75.74 81.81L76.76 82.82L77.71 83.68L78.6 84.39L79.45 84.96L80.27 85.4L81.06 85.71L81.83 85.89L82.6 85.95L83.38 85.89L84.18 85.72L85 85.45L85.87 85.07L86.48 84.79L87.02 84.5L87.49 84.21L87.9 83.89L88.24 83.54L88.52 83.14L88.75 82.68L88.93 82.15L89.08 81.54L89.18 80.83L89.26 80.01L89.3 79.08L89.33 78.01L89.33 76.8L89.32 75.74L89.28 74.74L89.21 73.79L89.12 72.88L88.98 72.02L88.82 71.18L88.62 70.37L88.38 69.58L88.09 68.8L87.77 68.03L87.4 67.27L86.98 66.5L86.52 65.72L86 64.93L85.14 63.78L84.29 62.79L83.43 61.94L82.57 61.26L81.69 60.72L80.8 60.34L79.9 60.12L78.97 60.04L78.03 60.12L77.05 60.35ZM120.58 60.36L119.65 60.65L118.71 61.06L117.74 61.61L116.75 62.27L115.73 63.07L114.91 63.86L114.15 64.82L113.47 65.9L112.86 67.11L112.34 68.42L111.89 69.82L111.53 71.28L111.26 72.8L111.09 74.35L111.01 75.91L111.03 77.48L111.16 79.03L111.39 80.54L111.73 82L111.96 82.67L112.18 83.27L112.41 83.79L112.64 84.24L112.89 84.63L113.16 84.95L113.45 85.22L113.77 85.43L114.13 85.58L114.53 85.69L114.98 85.76L115.48 85.79L116.04 85.78L116.67 85.73L117.98 85.52L119.33 85.06L120.7 84.38L122.07 83.5L123.41 82.46L124.7 81.27L125.92 79.97L127.05 78.57L128.06 77.1L128.94 75.59L129.66 74.05L130.21 72.53L130.55 71.04L130.67 69.6L130.65 69.27L130.6 68.9L130.51 68.51L130.39 68.09L130.24 67.65L130.07 67.2L129.87 66.73L129.64 66.26L129.39 65.78L129.12 65.3L128.83 64.83L128.53 64.36L128.2 63.9L127.87 63.47L127.14 62.62L126.4 61.89L125.63 61.29L124.84 60.82L124.03 60.48L123.2 60.26L122.35 60.17L121.47 60.2L120.58 60.36Z" id="f2iEFiQkJM"></path>
		<path d="M235.61 72.58L236.28 72.6L236.96 72.63L237.65 72.67L238.33 72.71L239.02 72.76L239.71 72.82L240.4 72.89L241.08 72.97L241.77 73.05L242.45 73.15L243.14 73.25L243.81 73.35L244.49 73.47L245.15 73.59L245.81 73.72L246.47 73.86L247.11 74.01L247.75 74.16L248.38 74.32L248.99 74.49L249.6 74.67L250.04 74.8L250.49 74.96L250.95 75.15L251.42 75.36L251.9 75.6L252.39 75.86L252.89 76.14L253.39 76.44L253.9 76.76L254.41 77.11L254.93 77.47L255.45 77.85L255.98 78.24L256.5 78.65L257.03 79.08L257.55 79.51L258.07 79.96L258.59 80.43L259.11 80.9L259.62 81.38L260.12 81.88L260.62 82.37L261.11 82.88L261.59 83.39L262.06 83.91L262.52 84.43L262.97 84.96L263.41 85.48L263.83 86.01L264.24 86.54L264.64 87.06L265.02 87.59L265.38 88.11L265.72 88.63L266.04 89.14L266.34 89.65L266.63 90.15L266.88 90.64L267.12 91.12L267.33 91.6L267.41 91.78L267.5 91.96L267.58 92.13L267.66 92.31L267.75 92.48L267.84 92.65L267.92 92.81L268.01 92.98L268.1 93.14L268.19 93.3L268.28 93.46L268.37 93.61L268.46 93.76L268.55 93.9L268.64 94.05L268.73 94.19L268.82 94.32L268.91 94.45L269 94.58L269.08 94.7L269.17 94.82L269.26 94.93L269.34 95.04L269.43 95.14L269.51 95.24L269.59 95.33L269.67 95.42L269.75 95.5L269.83 95.58L269.9 95.65L269.98 95.71L270.05 95.77L270.12 95.82L270.18 95.87L270.25 95.91L270.31 95.94L270.37 95.97L270.43 95.99L270.48 96L270.53 96L270.6 96.01L270.67 96.03L270.74 96.08L270.8 96.14L270.86 96.22L270.93 96.31L270.99 96.42L271.04 96.55L271.1 96.69L271.16 96.85L271.21 97.03L271.26 97.22L271.31 97.43L271.36 97.66L271.41 97.9L271.45 98.15L271.5 98.43L271.54 98.71L271.58 99.02L271.62 99.33L271.65 99.67L271.69 100.01L271.72 100.38L271.75 100.75L271.78 101.14L271.81 101.55L271.84 101.97L271.86 102.4L271.88 102.85L271.9 103.31L271.92 103.79L271.94 104.28L271.95 104.78L271.96 105.3L271.98 105.83L271.98 106.37L271.99 106.92L272 107.49L272 108.07L272 108.67L272 109.39L272 110.09L271.99 110.77L271.99 111.42L271.98 112.04L271.97 112.64L271.96 113.22L271.95 113.77L271.93 114.3L271.91 114.81L271.9 115.29L271.87 115.75L271.85 116.19L271.82 116.61L271.8 117.01L271.77 117.39L271.73 117.74L271.7 118.08L271.66 118.4L271.62 118.7L271.57 118.98L271.53 119.24L271.48 119.49L271.42 119.72L271.37 119.93L271.31 120.12L271.25 120.3L271.18 120.46L271.12 120.61L271.04 120.74L270.97 120.86L270.89 120.96L270.81 121.05L270.72 121.13L270.63 121.19L270.54 121.25L270.45 121.28L270.35 121.31L270.24 121.33L270.13 121.33L270.05 121.34L269.97 121.34L269.89 121.36L269.81 121.37L269.73 121.39L269.66 121.42L269.58 121.45L269.5 121.48L269.42 121.52L269.34 121.57L269.26 121.61L269.19 121.66L269.11 121.72L269.04 121.78L268.96 121.84L268.89 121.91L268.81 121.97L268.74 122.05L268.67 122.12L268.6 122.2L268.53 122.28L268.46 122.37L268.39 122.45L268.33 122.54L268.26 122.64L268.2 122.73L268.14 122.83L268.08 122.93L268.02 123.03L267.96 123.13L267.9 123.24L267.85 123.35L267.79 123.46L267.74 123.57L267.69 123.68L267.64 123.8L267.6 123.91L267.55 124.03L267.51 124.15L267.47 124.27L267.32 124.8L267.13 125.35L266.91 125.9L266.65 126.46L266.35 127.02L266.02 127.6L265.66 128.17L265.27 128.76L264.85 129.34L264.39 129.93L263.91 130.52L263.4 131.11L262.87 131.7L262.31 132.28L261.73 132.87L261.12 133.45L260.49 134.04L259.84 134.61L259.17 135.18L258.48 135.75L257.78 136.31L257.05 136.86L256.32 137.4L255.56 137.94L254.8 138.46L254.02 138.97L253.23 139.47L252.43 139.96L251.62 140.44L250.8 140.9L249.97 141.34L249.14 141.77L248.31 142.19L247.46 142.58L246.62 142.96L245.78 143.31L244.93 143.65L244.09 143.97L243.24 144.26L242.4 144.53L242.23 144.59L242.08 144.66L241.93 144.76L241.78 144.87L241.65 145.02L241.52 145.2L241.4 145.42L241.28 145.67L241.17 145.98L241.07 146.33L240.97 146.74L240.88 147.2L240.8 147.73L240.72 148.32L240.64 148.98L240.58 149.72L240.51 150.54L240.45 151.44L240.4 152.42L240.35 153.5L240.3 154.67L240.26 155.95L240.23 157.32L240.19 158.81L240.16 160.41L240.13 162.12L240.11 163.95L240.09 165.91L240.07 168L240.06 170.22L240.04 172.58L240.03 175.08L240.02 177.72L240.02 180.52L240.01 183.47L240.01 186.57L240 189.84L240 193.28L240 196.89L240 200.67L240 204.68L240 208.49L240 212.11L240 215.55L239.99 218.8L239.99 221.88L239.98 224.8L239.97 227.55L239.96 230.15L239.95 232.59L239.93 234.89L239.91 237.06L239.89 239.09L239.86 240.99L239.83 242.77L239.8 244.44L239.75 245.99L239.71 247.45L239.66 248.8L239.6 250.07L239.54 251.24L239.47 252.34L239.39 253.37L239.31 254.32L239.22 255.21L239.12 256.05L239.02 256.83L238.9 257.57L238.78 258.27L238.65 258.94L238.51 259.58L238.36 260.2L238.2 260.8L238.03 261.39L237.86 261.98L237.67 262.57L237.47 263.17L237.26 263.78L237.03 264.41L236.8 265.07L236.34 266.37L235.87 267.65L235.41 268.9L234.93 270.12L234.46 271.31L233.98 272.48L233.49 273.63L232.99 274.75L232.49 275.85L231.99 276.93L231.47 277.98L230.95 279.01L230.41 280.03L229.87 281.02L229.32 282L228.75 282.96L228.18 283.9L227.59 284.83L226.99 285.74L226.38 286.63L225.76 287.52L225.12 288.39L224.47 289.25L223.8 290.09L223.12 290.93L222.42 291.76L221.71 292.58L220.97 293.39L220.22 294.19L219.46 294.99L218.67 295.78L217.86 296.57L217.04 297.36L216.19 298.14L215.33 298.91L214.44 299.69L213.53 300.47L212.6 301.24L211.64 302.02L210.67 302.8L210.03 303.3L209.39 303.78L208.75 304.27L208.11 304.74L207.47 305.2L206.83 305.66L206.19 306.11L205.55 306.55L204.92 306.98L204.29 307.4L203.66 307.81L203.03 308.22L202.41 308.61L201.78 309L201.17 309.37L200.55 309.74L199.94 310.09L199.33 310.44L198.73 310.77L198.13 311.1L197.54 311.41L196.95 311.72L196.37 312.01L195.8 312.29L195.23 312.57L194.66 312.83L194.11 313.07L193.56 313.31L193.01 313.54L192.48 313.75L191.95 313.95L191.43 314.14L190.92 314.32L190.42 314.48L189.93 314.63L189.44 314.77L188.97 314.9L188.5 315.01L188.05 315.11L187.6 315.2L187.39 315.24L187.18 315.29L186.97 315.33L186.77 315.38L186.56 315.44L186.36 315.49L186.15 315.55L185.95 315.61L185.75 315.67L185.56 315.73L185.36 315.8L185.17 315.87L184.99 315.94L184.8 316.01L184.62 316.08L184.44 316.16L184.27 316.23L184.1 316.31L183.93 316.39L183.77 316.47L183.61 316.55L183.46 316.63L183.31 316.71L183.16 316.79L183.03 316.88L182.89 316.96L182.77 317.05L182.65 317.13L182.53 317.22L182.43 317.3L182.32 317.38L182.23 317.47L182.14 317.55L182.06 317.64L181.99 317.72L181.92 317.81L181.86 317.89L181.81 317.97L181.77 318.05L181.73 318.13L181.59 318.34L181.34 318.53L180.98 318.72L180.51 318.89L179.95 319.05L179.29 319.2L178.55 319.35L177.74 319.48L176.85 319.6L175.89 319.71L174.87 319.81L173.8 319.9L172.68 319.98L171.52 320.04L170.32 320.1L169.1 320.15L167.84 320.19L166.57 320.21L165.29 320.23L164 320.23L162.71 320.23L161.43 320.21L160.16 320.19L158.9 320.15L157.68 320.1L156.48 320.04L155.32 319.98L154.2 319.9L153.13 319.81L152.11 319.71L151.15 319.6L150.26 319.48L149.45 319.35L148.71 319.2L148.05 319.05L147.49 318.89L147.02 318.72L146.66 318.53L146.41 318.34L146.27 318.13L146.23 318.05L146.19 317.97L146.14 317.89L146.08 317.81L146.01 317.72L145.94 317.64L145.86 317.55L145.77 317.47L145.68 317.38L145.58 317.3L145.47 317.22L145.35 317.13L145.23 317.05L145.11 316.96L144.97 316.88L144.84 316.79L144.69 316.71L144.54 316.63L144.39 316.55L144.23 316.47L144.07 316.39L143.9 316.31L143.73 316.23L143.56 316.16L143.38 316.08L143.2 316.01L143.01 315.94L142.83 315.87L142.64 315.8L142.44 315.73L142.25 315.67L142.05 315.61L141.85 315.55L141.64 315.49L141.44 315.44L141.23 315.38L141.03 315.33L140.82 315.29L140.61 315.24L140.4 315.2L139.66 315.04L138.89 314.84L138.1 314.61L137.27 314.34L136.42 314.03L135.54 313.7L134.64 313.33L133.72 312.93L132.78 312.5L131.82 312.04L130.86 311.56L129.87 311.05L128.88 310.51L127.88 309.96L126.87 309.38L125.86 308.78L124.84 308.17L123.83 307.53L122.81 306.88L121.8 306.22L120.79 305.54L119.79 304.85L118.8 304.14L117.82 303.43L116.85 302.71L115.9 301.98L114.96 301.25L114.05 300.51L113.15 299.76L112.28 299.02L111.43 298.27L110.6 297.53L109.81 296.78L109.04 296.04L108.31 295.31L107.61 294.58L106.95 293.85L106.33 293.14L105.74 292.43L105.2 291.73L104.79 291.19L104.39 290.64L104 290.11L103.61 289.58L103.24 289.06L102.86 288.54L102.5 288.04L102.14 287.54L101.8 287.05L101.46 286.56L101.12 286.09L100.8 285.62L100.49 285.17L100.18 284.72L99.89 284.28L99.6 283.86L99.32 283.44L99.06 283.04L98.8 282.65L98.55 282.27L98.31 281.9L98.09 281.54L97.87 281.2L97.66 280.87L97.47 280.55L97.29 280.24L97.11 279.95L96.95 279.68L96.81 279.42L96.67 279.17L96.54 278.94L96.43 278.72L96.33 278.52L96.25 278.34L96.17 278.17L96.11 278.02L96.06 277.89L96.03 277.78L96.01 277.68L96 277.6L96 277.56L95.99 277.51L95.98 277.45L95.97 277.39L95.96 277.32L95.94 277.25L95.92 277.17L95.89 277.09L95.87 277L95.84 276.9L95.8 276.81L95.77 276.7L95.73 276.59L95.69 276.48L95.64 276.37L95.59 276.25L95.55 276.12L95.49 276L95.44 275.87L95.38 275.73L95.32 275.6L95.26 275.46L95.2 275.32L95.14 275.17L95.07 275.02L95 274.88L94.93 274.72L94.86 274.57L94.78 274.42L94.71 274.26L94.63 274.11L94.55 273.95L94.47 273.79L94.39 273.63L94.3 273.47L94.22 273.31L94.13 273.15L94.04 272.99L93.96 272.83L93.87 272.67L93.6 272.13L93.33 271.54L93.05 270.9L92.78 270.21L92.52 269.47L92.25 268.7L91.98 267.89L91.72 267.04L91.46 266.16L91.21 265.25L90.96 264.32L90.71 263.36L90.47 262.38L90.24 261.39L90.01 260.38L89.79 259.37L89.58 258.34L89.38 257.31L89.18 256.28L89 255.25L88.83 254.23L88.66 253.21L88.51 252.2L88.37 251.21L88.24 250.24L88.12 249.28L88.02 248.35L87.93 247.44L87.85 246.57L87.79 245.72L87.75 244.91L87.72 244.14L87.71 243.42L87.71 242.73L87.73 242.09L87.78 241.51L87.84 240.98L87.91 240.5L88.01 240.09L88.13 239.73L88.25 239.47L88.37 239.21L88.49 238.95L88.62 238.7L88.75 238.46L88.89 238.23L89.04 238L89.18 237.78L89.34 237.56L89.49 237.36L89.65 237.16L89.81 236.97L89.98 236.79L90.15 236.61L90.32 236.44L90.49 236.28L90.67 236.13L90.84 235.99L91.02 235.86L91.2 235.73L91.38 235.62L91.56 235.51L91.74 235.41L91.93 235.33L92.11 235.25L92.29 235.18L92.47 235.12L92.65 235.07L92.83 235.04L93.01 235.01L93.19 234.99L93.36 234.98L93.53 234.99L93.7 235L93.87 235.03L94.04 235.07L94.2 235.12L94.36 235.18L94.51 235.25L94.67 235.33L94.72 235.37L94.77 235.41L94.82 235.47L94.87 235.53L94.93 235.61L94.98 235.69L95.04 235.79L95.09 235.89L95.15 236L95.2 236.12L95.26 236.25L95.32 236.38L95.37 236.52L95.43 236.67L95.49 236.83L95.54 237L95.6 237.17L95.66 237.34L95.71 237.53L95.77 237.72L95.82 237.91L95.88 238.11L95.93 238.32L95.98 238.53L96.03 238.75L96.08 238.97L96.14 239.19L96.18 239.42L96.23 239.65L96.28 239.89L96.32 240.13L96.37 240.37L96.41 240.62L96.45 240.87L96.49 241.12L96.53 241.37L96.57 241.63L96.6 241.88L96.64 242.14L96.67 242.4L96.78 243.23L96.91 244.07L97.05 244.93L97.19 245.81L97.35 246.69L97.52 247.59L97.7 248.5L97.88 249.41L98.08 250.33L98.28 251.26L98.49 252.2L98.71 253.13L98.93 254.07L99.16 255.01L99.4 255.95L99.64 256.89L99.89 257.82L100.15 258.76L100.4 259.68L100.67 260.6L100.93 261.51L101.2 262.41L101.48 263.3L101.75 264.18L102.03 265.05L102.32 265.9L102.6 266.74L102.88 267.56L103.17 268.36L103.45 269.14L103.74 269.9L104.03 270.64L104.31 271.35L104.6 272.04L104.88 272.71L105.16 273.35L105.44 273.95L105.72 274.53L105.99 275.08L106.27 275.6L106.62 276.21L107.01 276.84L107.44 277.49L107.89 278.15L108.37 278.83L108.88 279.52L109.41 280.22L109.97 280.93L110.55 281.66L111.15 282.39L111.78 283.12L112.42 283.87L113.08 284.61L113.75 285.36L114.44 286.1L115.14 286.85L115.85 287.6L116.58 288.34L117.31 289.07L118.05 289.8L118.8 290.52L119.54 291.23L120.3 291.93L121.05 292.62L121.8 293.3L122.56 293.95L123.31 294.6L124.05 295.22L124.79 295.83L125.52 296.41L126.25 296.97L126.96 297.51L127.66 298.03L128.35 298.51L129.03 298.97L129.68 299.4L130.33 299.8L130.95 300.17L131.55 300.5L132.13 300.8L133.15 301.3L134.13 301.78L135.08 302.23L135.99 302.67L136.86 303.08L137.7 303.47L138.51 303.85L139.3 304.21L140.06 304.55L140.79 304.87L141.5 305.17L142.19 305.46L142.87 305.73L143.52 305.99L144.16 306.23L144.79 306.46L145.4 306.67L146.01 306.87L146.61 307.06L147.2 307.23L147.79 307.4L148.37 307.55L148.96 307.69L149.55 307.83L150.14 307.95L150.73 308.07L151.34 308.17L151.95 308.27L152.57 308.36L153.21 308.45L153.86 308.53L154.52 308.6L155.21 308.67L155.91 308.74L156.64 308.8L157.39 308.86L158.17 308.91L158.97 308.96L159.8 309.02L160.67 309.07L161.42 309.1L162.16 309.12L162.86 309.14L163.55 309.16L164.21 309.18L164.85 309.19L165.48 309.19L166.08 309.2L166.67 309.2L167.24 309.19L167.8 309.18L168.34 309.17L168.87 309.15L169.39 309.12L169.9 309.09L170.41 309.06L170.9 309.02L171.39 308.97L171.87 308.92L172.35 308.87L172.83 308.8L173.3 308.73L173.78 308.66L174.25 308.58L174.73 308.49L175.21 308.39L175.69 308.29L176.18 308.18L176.68 308.07L177.19 307.94L177.7 307.81L178.22 307.67L178.76 307.52L179.31 307.37L179.87 307.21L180.45 307.04L181.04 306.86L181.65 306.67L182.28 306.47L182.93 306.27L183.81 305.97L184.68 305.66L185.53 305.36L186.36 305.06L187.18 304.75L187.98 304.44L188.77 304.13L189.55 303.81L190.31 303.49L191.06 303.17L191.8 302.84L192.52 302.51L193.24 302.17L193.94 301.83L194.63 301.49L195.31 301.13L195.99 300.78L196.65 300.41L197.3 300.04L197.95 299.67L198.59 299.28L199.22 298.89L199.84 298.49L200.46 298.09L201.08 297.67L201.68 297.25L202.28 296.82L202.88 296.38L203.47 295.93L204.06 295.47L204.65 295L205.24 294.52L205.82 294.03L206.4 293.52L206.98 293.01L207.55 292.49L208.13 291.95L208.71 291.4L209.29 290.84L209.87 290.27L210.31 289.81L210.76 289.33L211.22 288.83L211.69 288.32L212.16 287.8L212.63 287.26L213.11 286.72L213.59 286.16L214.07 285.59L214.55 285.01L215.03 284.43L215.51 283.85L215.98 283.26L216.45 282.67L216.92 282.08L217.38 281.48L217.83 280.89L218.27 280.31L218.71 279.73L219.13 279.15L219.55 278.58L219.95 278.02L220.34 277.47L220.71 276.93L221.08 276.41L221.42 275.89L221.75 275.4L222.06 274.92L222.35 274.45L222.62 274.01L222.87 273.59L223.09 273.19L223.3 272.81L223.48 272.46L223.63 272.13L223.76 271.83L223.87 271.56L223.94 271.32L223.98 271.11L224 270.93L224 270.88L224.01 270.81L224.02 270.74L224.04 270.66L224.05 270.57L224.08 270.47L224.11 270.36L224.14 270.25L224.17 270.13L224.21 270L224.25 269.86L224.3 269.72L224.35 269.57L224.4 269.41L224.46 269.25L224.52 269.08L224.58 268.91L224.64 268.73L224.71 268.54L224.78 268.35L224.86 268.16L224.93 267.96L225.01 267.75L225.09 267.54L225.18 267.33L225.26 267.12L225.35 266.9L225.44 266.68L225.54 266.45L225.63 266.23L225.73 266L225.83 265.77L225.93 265.53L226.03 265.3L226.13 265.06L226.24 264.82L226.34 264.59L226.45 264.35L226.56 264.11L226.67 263.87L226.84 263.45L227.01 263.04L227.17 262.62L227.32 262.2L227.47 261.77L227.61 261.32L227.74 260.86L227.87 260.36L227.98 259.84L228.1 259.28L228.2 258.68L228.3 258.03L228.39 257.34L228.48 256.59L228.57 255.78L228.64 254.91L228.71 253.96L228.78 252.95L228.84 251.85L228.9 250.67L228.95 249.4L229 248.03L229.05 246.57L229.09 245L229.12 243.33L229.16 241.54L229.18 239.63L229.21 237.6L229.23 235.44L229.25 233.15L229.27 230.73L229.29 228.15L229.3 225.44L229.31 222.57L229.32 219.54L229.32 216.35L229.33 212.99L229.33 209.46L229.33 205.75L229.33 201.87L229.33 145.6L227.24 144.55L226.97 144.42L222.13 142L221.34 141.6L220.56 141.18L219.8 140.77L219.05 140.34L218.31 139.91L217.59 139.46L216.89 139.01L216.2 138.56L215.52 138.09L214.85 137.62L214.21 137.14L213.57 136.65L212.95 136.15L212.34 135.65L211.75 135.14L211.17 134.61L210.61 134.09L210.06 133.55L209.52 133L209 132.45L208.49 131.89L208 131.32L207.52 130.74L207.05 130.15L206.6 129.56L206.16 128.96L205.74 128.34L205.33 127.72L204.93 127.09L204.55 126.46L204.18 125.81L203.82 125.16L203.48 124.49L203.15 123.82L202.84 123.14L202.53 122.45L202.25 121.75L201.97 121.04L201.71 120.33L201.47 119.6L201.22 118.88L200.99 118.18L200.77 117.51L200.56 116.87L200.37 116.26L200.18 115.66L200.01 115.09L199.85 114.54L199.7 114.01L199.57 113.5L199.44 113L199.33 112.51L199.23 112.04L199.14 111.58L199.07 111.13L199 110.69L198.95 110.25L198.91 109.82L198.88 109.39L198.87 108.97L198.86 108.54L198.87 108.12L198.89 107.69L198.92 107.25L198.97 106.82L199.02 106.37L199.09 105.92L199.17 105.45L199.26 104.98L199.37 104.49L199.48 103.98L199.61 103.46L199.75 102.93L199.9 102.37L200.07 101.79L200.24 101.19L200.43 100.57L200.63 99.92L200.84 99.24L201.07 98.53L201.38 97.55L201.71 96.6L202.05 95.66L202.4 94.74L202.76 93.85L203.13 92.97L203.52 92.12L203.92 91.28L204.33 90.47L204.75 89.67L205.19 88.89L205.64 88.14L206.11 87.4L206.59 86.68L207.08 85.98L207.59 85.29L208.11 84.63L208.65 83.98L209.2 83.35L209.77 82.73L210.35 82.14L210.95 81.56L211.56 80.99L212.19 80.45L212.84 79.92L213.5 79.4L214.18 78.9L214.88 78.42L215.6 77.95L216.33 77.5L217.08 77.06L217.85 76.63L218.63 76.22L219.44 75.83L220.26 75.44L221.1 75.08L221.97 74.72L222.85 74.38L223.75 74.05L224.67 73.73L225.11 73.6L225.57 73.47L226.05 73.35L226.54 73.24L227.06 73.14L227.59 73.05L228.13 72.96L228.69 72.88L229.27 72.81L229.86 72.75L230.46 72.7L231.07 72.66L231.69 72.62L232.32 72.59L232.97 72.58L233.62 72.56L234.27 72.56L234.94 72.57L235.61 72.58ZM234.45 81.59L233.91 81.63L233.37 81.69L232.83 81.77L232.28 81.87L231.73 81.99L231.17 82.13L230.6 82.29L230.02 82.47L229.43 82.67L228.83 82.89L228.21 83.12L227.58 83.38L226.94 83.66L226.28 83.95L225.6 84.27L224.95 84.57L224.32 84.86L223.72 85.16L223.13 85.46L222.57 85.75L222.03 86.05L221.51 86.36L221 86.66L220.51 86.97L220.04 87.29L219.58 87.61L219.14 87.94L218.71 88.27L218.3 88.62L217.89 88.97L217.5 89.33L217.12 89.71L216.74 90.09L216.38 90.49L216.02 90.9L215.67 91.33L215.33 91.77L214.99 92.23L214.65 92.7L214.32 93.2L213.99 93.71L213.66 94.24L213.33 94.78L213 95.36L212.67 95.95L212.34 96.56L212 97.2L211.52 98.23L211.09 99.29L210.71 100.36L210.39 101.44L210.12 102.54L209.91 103.65L209.74 104.76L209.63 105.89L209.57 107.02L209.57 108.15L209.61 109.28L209.7 110.41L209.85 111.54L210.04 112.67L210.28 113.79L210.57 114.9L210.9 116L211.29 117.09L211.72 118.16L212.19 119.22L212.71 120.26L213.28 121.29L213.89 122.29L214.55 123.26L215.25 124.21L215.99 125.14L216.78 126.03L217.61 126.9L218.48 127.73L219.39 128.52L220.34 129.28L221.33 130L221.76 130.29L222.18 130.57L222.59 130.83L222.98 131.08L223.36 131.32L223.74 131.55L224.11 131.76L224.48 131.95L224.84 132.14L225.2 132.31L225.56 132.48L225.92 132.63L226.28 132.77L226.64 132.9L227.01 133.02L227.38 133.13L227.77 133.23L228.16 133.33L228.56 133.41L228.97 133.49L229.4 133.55L229.84 133.61L230.29 133.67L230.76 133.71L231.26 133.75L231.77 133.78L232.3 133.81L232.86 133.83L233.44 133.85L234.04 133.86L234.67 133.86L235.33 133.87L235.98 133.86L236.6 133.86L237.2 133.85L237.77 133.83L238.32 133.81L238.85 133.79L239.35 133.75L239.84 133.72L240.31 133.67L240.76 133.62L241.2 133.57L241.62 133.5L242.03 133.43L242.42 133.35L242.81 133.26L243.18 133.17L243.55 133.06L243.91 132.95L244.27 132.83L244.62 132.69L244.97 132.55L245.31 132.4L245.66 132.24L246 132.07L246.35 131.88L246.7 131.69L247.05 131.48L247.41 131.26L247.78 131.03L248.16 130.79L248.54 130.54L248.93 130.27L249.72 129.72L250.47 129.17L251.19 128.63L251.88 128.09L252.54 127.55L253.18 127L253.78 126.46L254.35 125.91L254.9 125.37L255.42 124.81L255.91 124.25L256.38 123.69L256.82 123.12L257.24 122.54L257.63 121.95L258 121.35L258.34 120.74L258.67 120.12L258.97 119.49L259.24 118.84L259.5 118.18L259.73 117.51L259.95 116.82L260.15 116.11L260.32 115.38L260.48 114.64L260.62 113.88L260.74 113.09L260.85 112.29L260.94 111.46L261.01 110.61L261.07 109.73L261.11 109.11L261.15 108.51L261.19 107.93L261.22 107.38L261.24 106.84L261.25 106.33L261.26 105.84L261.25 105.36L261.25 104.9L261.23 104.46L261.21 104.03L261.17 103.62L261.13 103.21L261.09 102.82L261.03 102.44L260.97 102.07L260.89 101.7L260.81 101.34L260.72 100.99L260.62 100.64L260.51 100.3L260.39 99.95L260.27 99.61L260.13 99.27L259.98 98.93L259.83 98.58L259.66 98.23L259.48 97.88L259.29 97.52L259.09 97.16L258.89 96.78L258.67 96.4L258.31 95.81L257.95 95.24L257.59 94.69L257.23 94.16L256.88 93.65L256.52 93.15L256.16 92.67L255.8 92.21L255.43 91.76L255.06 91.33L254.69 90.91L254.31 90.5L253.92 90.11L253.53 89.72L253.13 89.35L252.72 88.98L252.3 88.63L251.86 88.28L251.42 87.94L250.97 87.61L250.5 87.28L250.02 86.96L249.52 86.64L249.01 86.33L248.48 86.02L247.94 85.71L247.38 85.41L246.79 85.1L246.19 84.79L245.57 84.49L244.93 84.18L244.27 83.87L243.6 83.58L242.95 83.31L242.32 83.05L241.7 82.82L241.09 82.61L240.5 82.42L239.92 82.25L239.34 82.09L238.78 81.96L238.22 81.84L237.67 81.75L237.13 81.67L236.59 81.62L236.05 81.58L235.52 81.56L234.98 81.57L234.45 81.59Z" id="b4irsCjxYd"></path>
		<path  d="M218.27 107.87C218.27 114.67 218.8 116.53 221.47 119.47C228.67 127.2 236 128.53 244.53 123.6C252.4 119.2 255.6 108.13 251.33 100C248 93.47 243.2 90.67 235.2 90.67C228.8 90.67 227.33 91.2 223.07 95.07C218.53 99.33 218.27 100 218.27 107.87Z" id="fnL3aVmGb"></path><path d="M74.05 103.62C73.78 107.47 66.72 110.11 58.29 109.52C49.87 108.92 43.25 105.31 43.52 101.46C43.79 97.61 50.85 94.97 59.28 95.56C67.71 96.16 74.33 99.77 74.05 103.62Z" id="dpjesHbDs"></path><path d="M160.33 100.56C160.64 104.31 154.33 107.89 146.23 108.56C138.14 109.23 131.32 106.73 131.01 102.99C130.7 99.24 137.02 95.65 145.11 94.98C153.2 94.31 160.02 96.81 160.33 100.56Z" id="akzECa8Bb"></path></defs><g><g><g><use xlink:href="#c1Vqr2dnrs" opacity="1" fill="#000000" fill-opacity="1"></use><g><use xlink:href="#c1Vqr2dnrs" opacity="1" fill-opacity="0" stroke="#000000" stroke-width="1" stroke-opacity="0"></use></g></g><g><use xlink:href="#bBkTatIW6" opacity="1" fill="#000000" fill-opacity="1"></use><g><use xlink:href="#bBkTatIW6" opacity="1" fill-opacity="0" stroke="#000000" stroke-width="1" stroke-opacity="0"></use></g></g><g><use xlink:href="#f2iEFiQkJM" opacity="1" fill="#000000" fill-opacity="1"></use><g><use xlink:href="#f2iEFiQkJM" opacity="1" fill-opacity="0" stroke="#000000" stroke-width="1" stroke-opacity="0"></use></g></g><g><use xlink:href="#b4irsCjxYd" opacity="1" fill="#000000" fill-opacity="1"></use><g><use xlink:href="#b4irsCjxYd" opacity="1" fill-opacity="0" stroke="#000000" stroke-width="1" stroke-opacity="0"></use></g></g><g><use xlink:href="#fnL3aVmGb" opacity="1" fill="#000000" fill-opacity="1"></use><g><use xlink:href="#fnL3aVmGb" opacity="1" fill-opacity="0" stroke="#000000" stroke-width="1" stroke-opacity="0"></use></g></g><g><use xlink:href="#dpjesHbDs" opacity="1" fill="#fff8f8" fill-opacity="1"></use></g><g><use xlink:href="#akzECa8Bb" opacity="1" fill="#ffffff" fill-opacity="1"></use></g></g></g></svg>