<svg version="1.0" xmlns="http://www.w3.org/2000/svg"
 width="43pt" viewBox="0 0 228.000000 240.000000"
 preserveAspectRatio="xMidYMid meet">
<g transform="translate(0.000000,240.000000) scale(0.100000,-0.100000)"
fill="#000000" stroke="none">
<path d="M937 2386 c-3 -8 -27 -18 -54 -21 -56 -9 -117 -32 -228 -87 -88 -43
-84 -43 -174 7 -80 45 -162 28 -216 -46 -32 -42 -33 -110 -3 -204 20 -67 21
-70 3 -99 -38 -65 -95 -184 -95 -199 0 -15 20 -27 45 -27 7 0 28 26 46 58 18
31 34 59 36 62 8 10 22 -26 33 -87 14 -71 2 -157 -30 -223 -10 -19 -20 -52
-24 -72 -6 -32 -11 -37 -38 -40 -17 -2 -36 -11 -42 -21 -9 -14 -4 -23 31 -55
39 -35 42 -41 47 -105 4 -37 11 -79 17 -94 15 -40 5 -53 -40 -53 -36 0 -41 3
-46 27 -4 16 -13 56 -21 90 -19 83 -18 227 3 327 9 45 14 90 10 99 -7 20 -52
23 -64 5 -13 -21 -42 -198 -42 -261 -1 -72 36 -292 55 -329 8 -15 14 -34 14
-42 0 -31 79 -169 185 -321 7 -11 -4 -29 -46 -72 -65 -68 -139 -157 -139 -169
0 -4 -7 -15 -15 -24 -24 -27 -102 -193 -109 -233 -4 -21 -14 -41 -22 -44 -10
-4 -14 -23 -14 -69 l0 -64 1140 0 1140 0 0 59 c0 42 -4 60 -14 64 -8 3 -18 23
-22 44 -9 52 -79 193 -138 281 -27 40 -80 104 -117 142 l-69 70 30 42 c54 76
84 122 97 148 7 14 17 32 21 40 118 202 144 547 61 795 -24 72 -90 208 -115
236 -19 22 -17 66 6 134 36 104 20 173 -53 226 -58 42 -110 40 -199 -8 -62
-34 -71 -36 -91 -23 -34 21 -131 70 -140 70 -4 0 -27 8 -50 19 -23 10 -63 22
-89 25 -26 4 -54 14 -62 22 -21 21 -391 21 -399 0z m424 -90 c53 -13 110 -31
127 -40 17 -9 37 -16 45 -16 20 0 67 -39 67 -55 0 -8 -28 -30 -62 -50 -35 -20
-85 -50 -111 -67 l-48 -30 -120 8 c-66 5 -173 5 -239 1 l-119 -9 -73 42 c-59
34 -125 75 -157 97 -11 7 46 54 78 64 20 6 41 15 46 20 6 4 39 15 75 24 36 9
79 20 95 24 17 5 91 9 165 10 111 1 152 -3 231 -23z m567 -83 c30 -27 31 -29
23 -88 -11 -79 -38 -200 -56 -250 -7 -22 -19 -76 -26 -121 -14 -91 -3 -174 32
-252 13 -28 19 -59 17 -88 -3 -45 -3 -45 -63 -70 -33 -13 -64 -24 -69 -24 -5
0 -27 -8 -50 -19 -23 -10 -57 -24 -76 -31 -19 -7 -53 -19 -75 -26 -22 -8 -49
-19 -60 -24 -11 -5 -32 -14 -47 -20 -23 -8 -28 -16 -28 -41 0 -30 1 -31 38
-26 35 4 103 26 147 47 11 5 38 16 60 24 112 40 133 48 163 62 35 16 72 11 72
-10 0 -40 -23 -122 -41 -147 l-20 -29 -184 0 c-154 0 -186 -3 -199 -16 -9 -8
-16 -21 -16 -28 0 -31 25 -36 172 -36 129 0 149 -2 155 -17 10 -25 -98 -121
-212 -190 -11 -6 -54 -28 -95 -48 -41 -20 -83 -41 -93 -46 -108 -59 -306 -72
-437 -30 -105 35 -289 130 -363 189 -80 65 -133 120 -123 129 4 5 78 10 164
13 l157 5 3 29 c2 16 -2 32 -10 37 -7 5 -95 9 -195 9 -209 0 -213 1 -232 92
-23 103 -5 126 68 88 22 -11 45 -20 52 -20 6 0 25 -7 42 -15 31 -13 57 -24
157 -59 25 -9 54 -21 66 -27 11 -6 34 -9 50 -7 22 2 30 9 32 28 3 22 -5 28
-60 53 -35 15 -67 27 -71 27 -5 0 -23 7 -40 15 -18 8 -51 21 -74 30 -24 8 -62
22 -85 30 -50 18 -107 42 -128 54 -22 13 -15 102 13 154 32 60 32 249 0 352
-59 193 -69 296 -24 241 8 -10 23 -13 44 -9 31 4 65 -11 155 -69 15 -10 43
-27 62 -38 19 -11 49 -29 65 -40 17 -11 45 -27 63 -37 18 -9 35 -27 38 -39 11
-43 -55 -119 -136 -156 -50 -23 -68 -51 -48 -75 16 -19 40 -16 98 14 101 52
184 169 178 250 l-3 37 95 12 c119 16 208 16 335 1 l100 -12 -3 -46 c-6 -86
68 -188 175 -244 61 -31 97 -30 101 3 4 26 -13 52 -35 52 -24 0 -103 60 -133
102 -22 29 -27 45 -21 61 8 20 18 28 101 77 19 11 49 29 65 40 17 11 46 29 65
40 19 11 53 32 75 45 32 20 49 24 82 19 35 -4 42 -2 48 15 9 31 -10 57 -57 76
-40 16 -42 18 -23 31 28 21 49 17 83 -13z m83 -441 c39 -78 58 -141 79 -257
24 -134 25 -182 4 -299 -23 -132 -26 -136 -74 -136 -48 0 -57 14 -35 56 8 16
15 41 15 55 0 14 3 47 6 72 6 39 13 50 45 73 52 36 52 62 0 70 -37 6 -40 9
-60 68 -12 33 -32 95 -43 136 l-21 75 22 73 c12 40 26 70 31 67 4 -3 19 -26
31 -53z m-1611 -833 c48 -55 148 -141 225 -195 55 -38 264 -136 323 -151 151
-38 233 -39 367 -2 73 20 78 22 210 85 147 72 265 163 378 292 21 25 35 32 65
32 64 0 66 -9 27 -84 -52 -99 -91 -153 -169 -232 -116 -115 -285 -218 -416
-251 -30 -8 -71 -18 -90 -23 -19 -5 -103 -10 -187 -10 -123 0 -163 4 -215 20
-34 11 -69 20 -77 20 -14 0 -72 25 -146 62 -83 42 -173 110 -246 185 -69 72
-84 90 -131 162 -33 50 -69 131 -63 141 3 5 26 10 50 10 40 0 46 -4 95 -61z
m69 -377 c85 -69 204 -142 267 -162 21 -7 44 -16 49 -20 33 -25 189 -53 320
-57 135 -5 161 -2 300 30 109 26 263 102 373 185 l84 64 26 -24 c123 -108 231
-270 280 -421 18 -55 18 -58 1 -67 -21 -12 -329 -13 -346 -2 -7 5 -17 28 -21
53 -15 81 -98 184 -143 177 -33 -4 -37 -41 -7 -70 46 -46 60 -67 69 -109 8
-32 7 -44 -3 -50 -20 -13 -1135 -11 -1159 1 -11 6 -19 21 -19 35 0 32 -38 45
-57 19 -7 -10 -13 -24 -13 -31 0 -7 -9 -17 -19 -23 -21 -11 -318 -14 -345 -4
-17 7 -22 39 -7 49 5 3 12 19 16 36 7 29 53 132 78 174 47 76 77 115 140 180
40 41 76 75 81 75 4 0 29 -17 55 -38z"/>
<path d="M930 1140 c-32 -32 -26 -73 18 -111 21 -19 49 -41 62 -49 13 -8 37
-27 54 -42 26 -22 29 -30 20 -45 -14 -22 -59 -21 -84 2 -10 9 -29 15 -42 13
-37 -5 -34 -38 7 -78 l36 -34 127 -2 c132 -2 159 4 195 44 39 43 -8 99 -49 58
-24 -25 -63 -31 -81 -13 -13 13 -13 17 2 41 10 14 21 26 25 26 4 0 25 14 46
30 22 17 51 39 65 50 43 33 46 95 5 122 -6 4 -95 8 -198 8 -175 0 -189 -1
-208 -20z"/>
</g>
</svg>
