<svg version="1.0" xmlns="http://www.w3.org/2000/svg"
  width="100%" viewBox="0 0 232.000000 200.000000"
 preserveAspectRatio="xMidYMid meet">
<metadata>
Created by potrace 1.15, written by Peter Selinger 2001-2017
</metadata>
<g transform="translate(0.000000,200.000000) scale(0.100000,-0.100000)"
fill="#000000" stroke="none">
<path class="svg22" d="M2050 1985 c-146 -132 -173 -162 -166 -189 11 -43 39 -32 125 49 73
68 84 75 122 75 33 0 47 -6 75 -34 29 -29 34 -41 34 -82 l0 -49 -489 -488
c-472 -473 -489 -489 -512 -476 -36 19 -129 118 -129 137 0 9 167 183 370 387
328 329 370 374 370 402 0 74 -18 59 -442 -364 -271 -271 -408 -414 -408 -428
0 -13 -42 -62 -111 -130 -105 -105 -159 -171 -159 -196 0 -7 -54 -67 -120
-135 l-120 -124 0 -124 c0 -104 -3 -125 -16 -130 -9 -3 -112 -6 -229 -6 -117
0 -220 -3 -229 -6 -10 -4 -16 -18 -16 -40 l0 -34 240 0 c227 0 241 1 260 20
26 26 50 26 57 0 5 -20 14 -20 864 -20 l859 0 0 28 c0 15 -5 33 -12 40 -9 9
-207 12 -829 12 -589 0 -820 3 -825 11 -4 7 54 72 137 156 103 104 158 151
194 168 35 16 86 59 165 139 65 66 128 120 145 126 19 6 200 180 515 498 267
268 500 505 518 526 30 35 32 43 32 112 0 55 -3 74 -13 74 -8 0 -19 11 -25 25
-7 14 -28 35 -47 46 -19 12 -35 25 -35 30 0 15 -133 9 -150 -6z m-1207 -1499
c9 -27 4 -34 -121 -159 -144 -144 -162 -152 -162 -71 0 46 2 49 107 156 94 95
111 109 137 106 22 -2 32 -10 39 -32z"/>
</g>
</svg>
