<svg version="1.0" xmlns="http://www.w3.org/2000/svg"
 width="100%" viewBox="0 0 232.000000 232.000000"
 preserveAspectRatio="xMidYMid meet">
<metadata>
Created by potrace 1.14, written by Peter Selinger 2001-2017
</metadata>
<g transform="translate(0.000000,232.000000) scale(0.100000,-0.100000)"
fill="#000000" stroke="none">
<path d="M737 2306 c-3 -8 -25 -17 -49 -21 -24 -4 -59 -14 -78 -22 -73 -32
-165 -77 -170 -82 -3 -3 -27 -21 -55 -40 -82 -56 -103 -91 -65 -111 20 -10 57
5 85 36 9 9 35 27 90 61 11 7 36 20 55 28 19 9 49 22 65 30 129 59 374 75 511
34 83 -25 183 -67 205 -85 8 -8 19 -14 23 -14 13 0 106 -79 154 -130 59 -63
115 -146 144 -216 55 -131 62 -164 66 -306 4 -148 -9 -220 -65 -353 -75 -175
-242 -352 -403 -426 -14 -6 -38 -17 -55 -25 -27 -13 -88 -31 -185 -55 -47 -11
-236 -11 -280 1 -19 5 -61 16 -93 24 -32 8 -63 19 -70 24 -7 5 -23 13 -37 17
-40 11 -159 95 -220 155 -91 88 -152 188 -201 330 -19 54 -24 91 -27 218 -3
137 -1 161 18 225 42 136 102 255 163 324 24 28 19 67 -10 71 -52 8 -197 -231
-219 -361 -4 -21 -13 -41 -20 -44 -21 -8 -20 -368 1 -389 8 -8 17 -31 21 -52
7 -42 32 -105 71 -177 78 -147 222 -285 373 -356 100 -48 128 -59 147 -59 10
0 39 -7 65 -15 67 -20 202 -28 273 -17 87 14 203 41 223 52 9 5 49 23 87 41
39 18 77 38 85 45 8 7 27 16 43 19 23 6 34 1 72 -38 36 -35 45 -51 45 -79 0
-27 9 -43 48 -80 42 -41 80 -68 96 -68 3 0 10 9 17 21 9 18 6 27 -20 59 -17
22 -31 47 -31 57 0 21 104 126 134 137 16 5 61 -34 233 -206 119 -120 213
-221 213 -232 0 -21 -104 -133 -132 -142 -16 -5 -50 24 -167 140 -81 80 -154
146 -162 146 -8 0 -20 -4 -27 -9 -30 -18 4 -64 159 -215 87 -85 159 -160 159
-166 0 -5 10 -10 23 -10 27 0 257 224 257 250 0 9 -119 135 -265 280 -246 246
-268 265 -307 271 -33 5 -50 15 -81 49 -40 46 -43 74 -13 110 15 17 56 96 79
150 80 192 82 461 5 655 -68 169 -189 319 -332 410 -91 57 -188 101 -249 111
-21 4 -41 13 -44 20 -8 21 -368 20 -376 0z m892 -1520 c49 -50 47 -65 -14
-112 l-35 -26 -45 43 c-25 24 -45 49 -45 56 0 16 67 83 83 83 7 0 32 -20 56
-44z"/>
<path d="M794 2160 c-39 -4 -85 -15 -102 -24 -17 -9 -38 -16 -46 -16 -20 0
-93 -39 -168 -90 -136 -93 -233 -225 -295 -400 -25 -69 -27 -87 -27 -235 0
-173 1 -177 74 -330 58 -121 193 -256 315 -315 126 -60 173 -70 329 -70 127 0
153 3 222 26 44 14 99 35 124 46 54 26 175 114 211 154 75 83 156 214 173 279
2 11 12 38 20 60 11 29 15 81 16 192 0 129 -3 163 -21 215 -50 151 -129 267
-247 361 -156 125 -348 174 -578 147z m241 -76 c120 -13 252 -81 350 -179 68
-69 94 -111 158 -255 20 -45 32 -195 23 -291 -9 -94 -15 -105 -47 -89 -45 24
-239 239 -239 265 0 4 -9 18 -20 32 -16 20 -20 41 -20 95 0 39 -6 84 -14 101
-8 18 -26 58 -40 89 -14 31 -26 60 -26 65 0 5 -11 25 -25 46 -23 33 -30 37
-68 37 -23 0 -47 -4 -52 -8 -22 -15 -46 -63 -56 -114 -17 -77 -48 -103 -131
-112 -65 -7 -68 -9 -121 -66 -47 -50 -65 -62 -122 -79 -37 -12 -79 -21 -94
-21 -14 0 -55 -11 -91 -23 -71 -25 -90 -47 -90 -105 0 -44 12 -65 74 -127 28
-29 61 -66 73 -82 33 -45 76 -60 192 -68 91 -6 107 -10 128 -31 15 -15 23 -35
23 -56 0 -18 9 -65 20 -103 11 -38 20 -81 20 -95 0 -14 7 -50 14 -80 14 -50
13 -56 -2 -68 -20 -15 -132 -6 -182 15 -139 60 -180 85 -256 158 -40 39 -134
170 -134 187 0 5 -8 28 -19 51 -31 71 -45 212 -31 320 13 93 19 114 72 222 35
74 58 104 128 175 60 60 127 108 199 140 25 12 55 26 66 32 27 15 191 37 240
33 22 -3 67 -7 100 -11z m60 -214 c56 -111 64 -136 68 -215 4 -90 14 -111 108
-235 47 -63 123 -143 220 -232 23 -22 24 -30 1 -71 -65 -117 -146 -202 -260
-270 -44 -26 -84 -47 -90 -47 -5 0 -29 -9 -53 -20 -56 -25 -113 -26 -138 -1
-10 10 -21 40 -25 67 -6 46 -25 139 -63 312 -9 40 -22 77 -30 83 -7 7 -73 18
-145 25 -73 8 -140 16 -148 19 -8 3 -26 22 -40 42 -14 21 -47 58 -74 84 -49
46 -50 47 -33 72 11 18 29 28 54 32 21 3 83 17 138 31 97 23 102 26 150 78 35
37 62 57 90 65 69 19 81 15 99 -31 16 -43 67 -88 98 -88 20 0 48 26 48 44 0 7
-15 19 -32 27 -31 13 -33 17 -36 73 -2 42 3 78 18 120 12 34 24 67 26 74 7 23
25 9 49 -38z"/>
</g>
</svg>
