<svg version="1.0" xmlns="http://www.w3.org/2000/svg"
 width="25pt" viewBox="0 0 140.000000 232.000000"
 preserveAspectRatio="xMidYMid meet">
<metadata>
Created by potrace 1.14, written by Peter Selinger 2001-2017
</metadata>
<g transform="translate(0.000000,232.000000) scale(0.100000,-0.100000)"
fill="#000000" stroke="none">
<path d="M110 2305 c0 -8 -4 -15 -10 -15 -27 0 -40 -173 -17 -240 10 -28 21
-38 57 -51 l45 -17 3 -56 c3 -56 -10 -88 -56 -135 -28 -29 -89 -117 -96 -139
-4 -12 -14 -22 -22 -22 -12 0 -14 -71 -14 -490 0 -483 0 -490 20 -490 11 0 29
9 40 20 19 19 20 33 20 374 0 195 3 361 6 370 6 14 69 16 614 16 545 0 608 -2
614 -16 3 -9 6 -221 6 -473 0 -342 -3 -460 -12 -469 -9 -9 -159 -12 -615 -12
l-603 0 -4 23 c-3 12 -7 39 -10 61 -6 46 -5 44 -44 52 l-32 7 0 -232 0 -231
54 -52 c30 -29 64 -61 75 -70 19 -17 62 -18 574 -18 541 0 552 0 565 20 7 11
18 20 26 20 8 0 28 17 45 38 17 20 37 45 46 55 13 15 15 109 15 752 0 621 -2
735 -14 735 -8 0 -17 11 -20 24 -3 14 -39 66 -79 118 -80 100 -91 126 -81 187
6 35 11 41 38 47 17 3 41 15 54 27 20 19 22 29 22 131 -1 103 -2 113 -25 139
l-24 27 -581 0 c-509 0 -580 -2 -580 -15z m1128 -77 c16 -16 16 -130 0 -146
-9 -9 -142 -12 -539 -12 -472 0 -528 2 -540 16 -11 14 -10 18 6 30 14 11 58
14 182 14 154 0 163 1 173 21 25 46 13 49 -174 49 -168 0 -197 5 -181 30 10
16 1057 14 1073 -2z m-124 -244 c11 -11 16 -34 16 -77 0 -69 2 -72 91 -183 77
-94 106 -155 93 -191 l-9 -28 -599 -3 c-434 -1 -603 1 -612 9 -22 18 -16 68
13 118 14 25 29 48 32 51 4 3 25 28 47 55 67 81 84 118 84 185 0 46 4 61 18
69 11 7 163 11 414 11 347 0 399 -2 412 -16z m196 -1613 c5 -11 10 -59 10
-106 0 -98 -13 -127 -74 -164 -33 -21 -45 -21 -556 -21 l-523 0 -43 44 -44 43
0 100 c0 64 4 103 12 111 9 9 158 12 610 12 580 0 598 -1 608 -19z"/>
<path d="M450 1291 c-81 -43 -110 -131 -69 -210 37 -72 117 -140 183 -157 15
-3 29 -10 31 -15 5 -7 -76 -90 -96 -97 -4 -2 -11 14 -15 35 -23 132 -161 223
-252 166 -53 -33 -71 -64 -72 -120 0 -74 36 -114 131 -145 62 -20 73 -21 119
-9 58 15 70 10 51 -21 -7 -12 -16 -47 -18 -79 -5 -54 -4 -60 25 -88 l30 -31
199 0 199 0 26 28 c38 39 43 72 23 137 -10 30 -15 58 -11 62 3 4 21 1 39 -5
47 -17 74 -15 146 9 80 27 121 77 121 147 0 41 -5 50 -45 89 -39 37 -51 43
-89 43 -23 0 -58 -7 -76 -16 -33 -17 -70 -48 -70 -60 0 -3 -8 -17 -19 -30 -10
-13 -22 -44 -25 -69 -4 -25 -10 -45 -13 -45 -7 0 -97 81 -101 92 -2 4 26 21
61 38 74 35 104 60 141 118 38 61 42 108 13 162 -75 142 -278 104 -302 -56 -8
-54 -20 -57 -30 -6 -21 116 -140 183 -235 133z m122 -80 c32 -29 33 -31 33
-111 0 -104 -18 -118 -85 -68 -81 61 -102 138 -49 182 39 33 61 33 101 -3z
m344 7 c16 -12 32 -27 36 -33 31 -42 -44 -150 -124 -180 -34 -13 -53 95 -29
168 10 30 52 66 77 67 6 0 24 -10 40 -22z m-548 -305 c25 -28 32 -45 30 -68
-3 -26 -7 -30 -37 -33 -22 -2 -52 5 -78 18 -38 19 -43 25 -43 56 0 45 32 78
68 70 15 -4 42 -23 60 -43z m780 19 c7 -9 12 -30 10 -47 -4 -37 -64 -75 -120
-75 -37 0 -38 1 -38 36 0 29 8 44 40 76 34 34 44 39 67 34 16 -4 34 -15 41
-24z m-360 -124 c39 -38 92 -136 92 -172 0 -14 -6 -28 -12 -32 -18 -11 -321
-12 -335 -1 -45 33 40 201 121 237 48 22 86 13 134 -32z"/>
</g>
</svg>
