<svg version="1.0" xmlns="http://www.w3.org/2000/svg"
 width="100%" viewBox="0 0 252.000000 240.000000"
 preserveAspectRatio="xMidYMid meet">
<metadata>
Created by potrace 1.14, written by Peter Selinger 2001-2017
</metadata>
<g transform="translate(0.000000,240.000000) scale(0.100000,-0.100000)"
fill="#000000" stroke="none">
<path d="M930 2389 c0 -5 -16 -17 -35 -25 -44 -18 -77 -46 -111 -95 -52 -76 5
-111 68 -41 19 21 52 49 74 62 39 25 42 25 313 28 304 4 329 0 397 -60 58 -51
94 -158 58 -172 -9 -3 -70 -6 -136 -6 l-120 0 -32 34 c-38 41 -105 76 -146 76
-42 0 -109 -35 -142 -73 l-27 -32 -135 -3 c-126 -3 -136 -2 -153 17 -20 24
-68 28 -76 7 -3 -7 -9 -50 -12 -94 -7 -72 -11 -83 -41 -118 -34 -37 -34 -38
-34 -135 0 -94 1 -99 28 -124 15 -15 39 -31 53 -36 25 -10 26 -14 32 -108 6
-78 13 -111 36 -162 35 -77 94 -147 162 -190 39 -26 49 -38 49 -60 0 -47 -48
-72 -154 -79 -50 -4 -113 -14 -141 -23 -50 -16 -74 -22 -215 -57 -161 -40
-187 -48 -235 -72 -81 -42 -142 -108 -184 -203 -17 -37 -25 -81 -32 -170 -10
-145 -17 -185 -29 -185 -6 0 -10 -60 -10 -145 l0 -145 1260 0 1260 0 0 129 c0
85 -4 131 -11 133 -13 4 -28 123 -29 221 0 116 -59 244 -145 319 -27 24 -130
73 -185 87 -68 19 -197 50 -270 67 -36 8 -82 21 -103 29 -21 8 -70 15 -110 15
-61 0 -78 4 -110 25 -45 31 -52 76 -14 96 68 36 164 141 182 199 4 14 12 31
18 38 6 8 16 64 21 125 10 99 14 112 31 115 11 2 35 18 53 35 32 31 32 32 32
125 l0 95 -40 44 c-23 24 -38 47 -35 52 10 18 -14 192 -36 252 -25 68 -89 140
-145 164 -19 8 -34 19 -34 24 0 8 -106 11 -330 11 -224 0 -330 -3 -330 -11z
m376 -300 c40 -25 54 -47 54 -88 0 -47 -37 -82 -92 -88 -42 -5 -50 -3 -78 25
-48 49 -40 116 18 150 46 27 57 27 98 1z m-150 -231 c24 -19 41 -23 104 -23
63 0 80 4 104 23 27 20 39 22 166 22 109 0 140 -3 150 -15 8 -10 11 -45 8
-111 l-3 -96 -54 -48 c-53 -47 -54 -47 -170 -64 -146 -20 -255 -20 -401 0
-115 16 -115 16 -170 63 l-55 48 -3 103 c-2 76 1 106 10 112 7 4 74 8 149 8
126 0 138 -2 165 -22z m104 -403 c74 0 170 4 213 9 42 5 77 7 77 5 1 -2 7 -49
15 -104 12 -92 12 -102 -4 -125 -73 -102 -376 -133 -536 -53 -80 40 -88 57
-75 156 19 144 9 131 98 121 42 -5 138 -9 212 -9z m176 -420 c9 -41 21 -55 71
-76 30 -13 43 -24 43 -38 0 -26 -278 -284 -298 -276 -8 3 -75 61 -148 128
-153 141 -159 155 -86 189 39 19 49 30 60 63 l12 40 170 0 169 1 7 -31z m-594
-127 c7 -7 70 -65 138 -128 69 -63 151 -140 183 -172 l57 -57 0 -116 c0 -123
8 -155 41 -155 30 0 39 39 39 163 l0 111 94 91 c126 123 294 275 303 275 33
-1 50 -79 39 -174 -7 -51 -10 -56 -40 -66 -18 -5 -46 -29 -64 -52 l-32 -42 0
-183 c0 -108 4 -192 10 -204 6 -10 29 -28 51 -40 38 -19 42 -19 65 -4 13 8 24
19 24 23 0 5 -16 23 -35 42 l-35 34 0 151 c0 119 3 155 15 172 33 47 150 38
173 -12 7 -16 12 -81 12 -166 l0 -140 -35 -33 c-40 -38 -45 -63 -13 -75 55
-20 138 52 138 120 0 76 18 29 25 -66 5 -70 4 -100 -5 -110 -11 -13 -111 -15
-725 -15 -393 0 -720 3 -729 6 -12 5 -16 20 -16 63 0 69 -10 86 -43 77 -27 -6
-37 -30 -37 -86 0 -20 -5 -41 -12 -48 -8 -8 -60 -12 -170 -12 -189 0 -182 -5
-168 121 6 46 14 122 20 169 5 47 10 107 10 133 0 59 39 156 83 204 60 67 96
83 302 134 139 35 133 35 146 3 6 -17 8 -53 5 -86 -5 -50 -11 -63 -45 -98 -22
-23 -41 -51 -43 -63 -7 -44 11 -92 46 -125 29 -26 44 -32 82 -32 25 0 54 5 65
10 28 15 69 85 69 117 0 33 -32 89 -66 116 -22 17 -24 25 -24 108 0 76 3 92
20 109 23 23 62 26 82 8z m1098 -48 c34 -11 70 -20 78 -20 24 0 152 -40 202
-63 43 -20 140 -111 140 -132 0 -5 7 -23 16 -40 11 -20 19 -75 25 -160 5 -72
14 -157 19 -190 6 -33 10 -83 10 -111 0 -64 2 -64 -186 -64 -101 0 -144 4
-151 13 -6 6 -13 53 -17 102 -9 115 -26 216 -39 233 -6 7 -24 12 -41 10 l-31
-3 -6 77 c-8 90 -34 135 -100 168 l-39 20 0 84 c0 106 8 112 120 76z"/>
</g>
</svg>
