<svg version="1.0" xmlns="http://www.w3.org/2000/svg"
 width="100%" viewBox="0 0 232.000000 224.000000"
 preserveAspectRatio="xMidYMid meet">
<metadata>
Created by potrace 1.14, written by Peter Selinger 2001-2017
</metadata>
<g transform="translate(0.000000,224.000000) scale(0.100000,-0.100000)"
fill="#000000" stroke="none">
<path d="M464 2212 c-32 -41 -57 -117 -51 -154 16 -102 31 -183 48 -260 10
-48 19 -100 19 -117 0 -43 16 -78 41 -91 17 -10 23 -9 30 1 14 23 10 100 -11
184 -22 88 -26 170 -9 180 15 10 18 5 29 -55 6 -29 14 -58 19 -64 5 -6 16 -36
24 -66 9 -30 25 -85 36 -122 12 -38 30 -98 42 -135 11 -38 29 -97 40 -133 11
-36 29 -94 40 -130 11 -36 29 -92 39 -125 41 -131 62 -202 72 -240 6 -22 19
-59 29 -83 10 -23 19 -48 19 -54 0 -6 11 -21 23 -32 65 -61 164 -95 273 -96
96 0 156 -23 213 -81 27 -28 53 -64 56 -80 4 -16 11 -31 16 -34 17 -11 10
-130 -11 -177 -61 -138 -225 -205 -355 -144 -116 54 -149 117 -207 391 -6 28
-19 79 -28 115 -10 36 -21 85 -25 110 -10 73 -35 112 -85 137 -25 13 -51 23
-57 23 -21 0 -43 43 -49 96 -3 27 -13 90 -24 139 -10 50 -23 119 -29 155 -41
247 -41 245 -76 245 -27 0 -30 -4 -33 -34 -2 -19 5 -75 16 -125 19 -85 30
-146 54 -291 5 -33 16 -90 25 -128 13 -62 13 -71 -3 -115 -10 -26 -29 -57 -43
-69 -37 -32 -144 -62 -222 -62 -83 0 -111 -7 -177 -44 -56 -31 -128 -111 -138
-153 -3 -13 -12 -24 -20 -24 -21 0 -20 -225 0 -233 8 -3 17 -19 21 -36 10 -45
113 -147 165 -162 23 -7 44 -19 47 -26 7 -19 189 -19 196 0 3 7 22 18 43 25
22 6 60 30 86 52 73 63 103 129 140 305 6 28 17 72 25 99 8 28 19 75 24 105 5
30 13 59 17 63 16 16 50 -54 62 -122 5 -36 17 -83 25 -105 8 -22 14 -52 15
-66 0 -38 41 -157 68 -201 31 -50 95 -106 148 -128 24 -11 44 -24 44 -30 0 -6
37 -10 99 -10 76 0 100 3 104 14 3 8 19 17 35 21 74 16 159 113 192 217 25 80
25 114 -1 198 -23 77 -90 161 -161 203 -46 26 -165 51 -193 41 -9 -4 -50 1
-91 12 -127 31 -179 106 -156 222 7 31 17 86 23 122 6 36 19 106 29 155 17 85
29 155 52 290 5 33 18 99 29 147 10 48 19 99 19 113 0 15 9 66 21 114 13 53
22 123 23 183 1 85 -2 100 -21 127 -13 16 -23 37 -23 46 0 10 -10 15 -32 15
-33 0 -33 -1 -61 -88 -15 -48 -28 -91 -28 -97 0 -5 -8 -28 -19 -50 -11 -22
-19 -51 -20 -63 0 -13 -7 -38 -15 -55 -8 -18 -21 -54 -29 -82 -8 -27 -24 -80
-35 -117 -12 -38 -29 -97 -40 -133 -10 -36 -27 -75 -37 -86 -17 -19 -19 -19
-31 -3 -7 10 -13 29 -13 43 -1 14 -9 44 -20 66 -11 22 -19 49 -20 60 0 11 -8
42 -19 70 -10 27 -29 84 -41 125 -13 41 -31 100 -40 130 -9 30 -27 89 -40 130
-38 124 -51 150 -74 149 -12 0 -30 -12 -42 -27z m612 -238 c4 -14 1 -48 -5
-77 -6 -29 -16 -81 -22 -117 -6 -36 -19 -105 -29 -155 -10 -49 -23 -117 -28
-150 -26 -155 -35 -205 -48 -265 -22 -102 -34 -140 -44 -140 -5 0 -12 17 -16
38 -4 20 -15 59 -25 85 -24 60 -24 101 0 169 10 29 29 87 41 128 50 164 64
207 81 258 11 30 19 61 19 71 0 9 9 33 20 54 11 20 20 47 20 59 0 33 11 68 21
68 5 0 12 -11 15 -26z m-358 -1204 c2 -13 -6 -61 -17 -107 -12 -46 -30 -122
-41 -170 -69 -292 -90 -331 -210 -390 -121 -60 -280 -1 -346 129 -29 56 -34
176 -9 218 8 14 18 34 24 46 29 64 173 138 249 126 47 -7 161 17 207 44 50 29
90 70 104 107 13 33 34 31 39 -3z"/>
<path d="M265 550 c-43 -18 -98 -76 -116 -125 -25 -65 -24 -93 5 -158 29 -67
76 -104 149 -119 182 -38 322 155 224 310 -15 23 -46 56 -69 72 -36 26 -49 30
-107 29 -36 0 -75 -4 -86 -9z m127 -70 c10 0 32 -14 50 -32 27 -26 33 -40 36
-87 3 -46 0 -61 -18 -84 -23 -29 -88 -67 -115 -67 -31 0 -93 40 -114 73 -33
54 -28 105 14 155 35 40 67 53 110 46 11 -2 28 -4 37 -4z"/>
<path d="M1500 2230 c0 -5 -11 -12 -25 -16 -14 -3 -27 -15 -30 -28 -3 -11 -4
-291 -3 -621 l3 -600 250 -6 c138 -3 251 -6 253 -7 15 -12 -19 -301 -51 -437
-15 -64 -21 -122 -21 -200 0 -102 2 -113 27 -157 60 -101 135 -140 237 -123
50 8 120 70 143 127 9 21 21 38 26 38 15 0 15 237 1 242 -6 2 -17 26 -24 53
-11 46 -15 50 -42 50 -27 0 -29 -2 -28 -40 1 -22 7 -60 14 -85 6 -25 10 -79 8
-120 -3 -64 -8 -82 -33 -120 -82 -123 -215 -87 -251 69 -11 47 -11 72 2 160 9
57 20 115 25 127 4 13 13 72 19 131 6 59 15 135 20 168 6 33 10 83 10 111 0
84 1 84 -262 84 -246 0 -253 1 -246 57 l3 28 210 5 c116 3 216 9 223 13 10 7
18 52 10 59 -2 1 -102 4 -223 8 l-220 5 -3 24 c-2 12 -1 34 2 47 l6 24 209 0
c198 0 209 1 227 21 18 20 18 21 -1 35 -15 11 -63 14 -220 14 -143 0 -204 3
-213 12 -10 10 -18 83 -9 90 1 1 101 4 222 8 201 5 220 7 223 23 9 43 -9 47
-222 47 -216 0 -226 2 -226 50 0 48 10 50 226 50 197 0 203 1 218 22 31 44 11
48 -213 48 -113 0 -212 4 -219 9 -9 5 -12 24 -10 52 l3 44 210 5 c133 3 217 9
230 17 19 11 19 12 1 32 -18 20 -29 21 -227 21 l-209 0 -6 24 c-3 13 -4 35 -2
47 3 23 8 24 98 29 103 5 120 11 120 40 0 29 -17 35 -120 40 -81 4 -95 8 -98
23 -9 44 8 47 242 47 177 0 232 -3 269 -16 54 -18 101 -67 116 -121 7 -24 11
-244 11 -613 0 -316 4 -604 9 -640 18 -139 44 -185 76 -136 13 20 14 33 4 87
-7 42 -13 281 -16 688 l-5 624 -23 52 c-36 80 -93 122 -189 137 -42 7 -76 16
-76 20 0 5 -99 8 -220 8 -137 0 -220 -4 -220 -10z"/>
<path d="M1135 535 c-80 -50 -115 -129 -99 -231 5 -34 17 -57 50 -93 56 -62
123 -82 209 -61 179 43 212 291 50 386 -59 34 -153 34 -210 -1z m197 -82 c14
-14 31 -45 37 -69 16 -63 -11 -124 -68 -153 -22 -12 -49 -21 -60 -21 -33 0
-102 43 -118 74 -22 43 -13 129 17 161 47 50 143 54 192 8z"/>
</g>
</svg>
