<svg version="1.0" xmlns="http://www.w3.org/2000/svg"
 width="100%" viewBox="0 0 244.000000 240.000000"
 preserveAspectRatio="xMidYMid meet">
<metadata>
Created by potrace 1.15, written by Peter Selinger 2001-2017
</metadata>
<g transform="translate(0.000000,240.000000) scale(0.100000,-0.100000)"
fill="#000000" stroke="none">
<path d="M580 2367 c-22 -28 -25 -40 -23 -110 2 -85 12 -107 49 -107 30 0 37
25 28 96 -5 43 -3 58 7 65 18 11 539 12 557 1 22 -14 -27 -88 -70 -108 -21 -9
-38 -20 -38 -25 0 -10 59 -59 71 -59 5 0 17 -16 26 -35 20 -42 42 -42 61 -2 7
15 31 39 53 52 48 31 50 52 5 70 -41 17 -86 92 -64 106 7 5 133 9 279 9 217 0
269 -3 278 -14 20 -24 -22 -277 -51 -313 -8 -10 -127 -13 -533 -13 l-522 0
-11 25 c-7 14 -12 33 -12 41 0 22 -46 40 -64 25 -18 -15 -13 -84 9 -141 10
-26 15 -103 17 -285 l4 -250 26 -45 c36 -60 70 -91 142 -129 77 -41 166 -123
166 -153 0 -30 -27 -68 -48 -68 -9 -1 -28 -7 -42 -14 -18 -10 -30 -11 -44 -4
-13 7 -35 6 -75 -5 -95 -26 -143 -38 -221 -56 -41 -9 -80 -20 -87 -24 -6 -4
-35 -12 -65 -17 -29 -5 -62 -14 -73 -19 -11 -5 -42 -19 -69 -32 -67 -30 -128
-95 -166 -176 -29 -59 -34 -84 -42 -183 -10 -142 -16 -180 -28 -180 -6 0 -10
-60 -10 -145 l0 -145 1220 0 1220 0 0 130 c0 76 -4 130 -10 130 -12 0 -18 39
-29 195 -6 83 -15 141 -25 160 -9 17 -16 34 -16 39 0 27 -73 114 -128 153 -35
25 -154 73 -183 73 -10 0 -40 7 -66 16 -26 9 -74 23 -105 30 -32 8 -84 20
-115 28 -32 7 -77 19 -99 26 -28 8 -47 9 -59 3 -26 -15 -120 23 -134 53 -6 13
-7 32 -4 41 8 21 111 123 124 123 17 0 115 60 136 82 11 13 32 44 46 70 l27
47 0 245 c0 227 2 249 20 283 11 21 20 51 20 66 0 16 9 68 21 114 11 47 21
118 22 157 2 63 -1 76 -23 103 l-25 32 -615 0 -615 0 -25 -32z m1142 -492 c12
-26 1 -86 -17 -92 -6 -1 -18 11 -27 27 -20 35 -31 36 -136 13 -61 -14 -125
-18 -317 -18 -233 0 -242 1 -305 26 -50 19 -66 30 -68 47 l-3 22 431 0 430 0
12 -25z m-702 -147 c71 -13 429 -4 496 12 86 21 84 25 84 -171 0 -191 -6 -216
-78 -307 -75 -94 -135 -133 -236 -153 -59 -11 -78 -11 -147 3 -118 25 -209 99
-273 225 -25 51 -26 57 -26 237 0 139 3 185 13 189 6 2 35 -3 62 -10 28 -8 75
-19 105 -25z m225 -699 c143 9 139 9 151 -28 6 -19 22 -40 36 -47 45 -23 46
-56 5 -75 -12 -5 -42 -23 -67 -39 -25 -16 -52 -33 -60 -37 -8 -3 -26 -15 -39
-25 -13 -10 -35 -18 -48 -18 -13 0 -76 30 -138 68 -92 54 -114 72 -114 90 -1
17 8 27 34 38 26 10 35 20 35 37 0 41 19 50 85 40 33 -4 87 -6 120 -4z m-390
-149 c17 -11 47 -30 69 -42 39 -23 47 -28 101 -62 79 -50 105 -69 105 -78 0
-19 -62 -68 -85 -68 -20 0 -99 58 -165 120 -9 8 -42 37 -73 64 -48 41 -55 51
-46 67 13 24 54 24 94 -1z m823 -3 c4 -20 -8 -33 -135 -139 -48 -40 -95 -81
-105 -90 -27 -27 -65 -22 -99 11 -16 16 -29 34 -29 39 0 9 26 28 105 78 54 34
62 39 101 62 22 12 53 31 69 42 37 24 88 22 93 -3z m-973 -80 c28 -22 55 -45
60 -51 6 -6 49 -44 97 -83 47 -40 101 -86 119 -103 19 -16 44 -30 57 -30 13 0
54 24 94 55 38 30 77 55 86 55 8 0 48 -25 88 -55 40 -30 83 -55 95 -55 12 0
41 17 63 38 46 40 112 97 221 188 39 32 73 63 77 68 3 5 19 14 34 21 30 12
109 0 193 -30 24 -8 52 -15 63 -15 33 0 142 -56 176 -90 63 -63 84 -121 98
-275 7 -77 18 -182 24 -234 8 -71 7 -97 -2 -108 -9 -12 -42 -14 -169 -11 -87
2 -160 6 -164 10 -4 4 -11 69 -15 144 -7 116 -11 140 -26 151 -10 8 -25 12
-34 11 -13 -3 -15 -27 -15 -148 0 -80 -4 -151 -8 -157 -6 -10 -156 -13 -692
-13 -376 0 -690 3 -699 6 -10 4 -16 18 -16 38 0 76 -58 90 -75 18 -6 -24 -17
-47 -25 -52 -8 -6 -81 -10 -161 -10 -118 0 -149 3 -159 15 -10 12 -10 37 -1
123 7 59 18 165 26 237 15 148 32 190 100 258 54 53 119 78 325 126 85 20 90
19 165 -42z"/>
<path d="M1359 353 c-9 -11 -14 -43 -14 -96 1 -110 -5 -107 221 -107 101 0
194 4 208 10 25 9 26 12 26 98 0 55 -4 92 -12 100 -9 9 -70 12 -214 12 -175 0
-203 -2 -215 -17z m354 -74 c6 -9 7 -24 4 -33 -5 -14 -25 -16 -135 -16 -99 0
-133 3 -148 15 -19 15 -19 15 5 35 22 19 36 20 144 18 97 -2 122 -6 130 -19z"/>
</g>
</svg>
