<svg version="1.0" xmlns="http://www.w3.org/2000/svg"
 width="37pt" viewBox="0 0 216.000000 240.000000"
 preserveAspectRatio="xMidYMid meet">
<g transform="translate(0.000000,240.000000) scale(0.100000,-0.100000)"
fill="#000000" stroke="none">
<path d="M406 2385 c-3 -8 -14 -15 -24 -15 -27 0 -121 -49 -169 -87 -81 -66
-162 -199 -178 -293 -4 -23 -13 -44 -21 -47 -21 -8 -21 -431 1 -447 8 -6 19
-39 24 -73 5 -34 17 -75 25 -92 9 -16 16 -36 16 -43 0 -7 14 -38 30 -68 103
-194 124 -284 135 -591 9 -261 21 -304 80 -277 l28 12 -6 116 c-13 239 -28
436 -37 475 -30 133 -43 169 -109 290 -58 109 -111 335 -111 475 0 144 45 320
104 405 28 41 83 93 128 121 47 30 181 64 251 64 101 0 228 -43 337 -115 52
-34 133 -65 170 -65 37 0 118 31 170 65 109 72 236 115 337 115 70 0 204 -34
251 -64 45 -28 100 -80 128 -121 54 -78 104 -260 104 -378 0 -63 18 -100 44
-93 12 3 27 6 34 6 19 0 17 276 -2 283 -8 3 -17 24 -21 47 -16 94 -97 227
-178 293 -48 38 -142 87 -169 87 -10 0 -21 7 -24 15 -9 22 -329 22 -337 1 -3
-8 -21 -17 -39 -21 -42 -10 -119 -49 -183 -95 -44 -31 -56 -35 -115 -35 -59 0
-71 4 -115 35 -64 46 -141 85 -183 95 -18 4 -36 13 -39 21 -8 21 -328 21 -337
-1z"/>
<path d="M2066 1561 c-10 -11 -20 -39 -23 -63 -9 -79 -56 -202 -133 -348 -16
-30 -29 -62 -29 -71 -1 -9 -8 -36 -17 -60 -16 -47 -36 -227 -59 -554 -17 -247
-37 -309 -116 -357 -37 -22 -52 -23 -87 -1 -42 27 -69 58 -124 142 -17 26
-103 199 -138 276 -50 112 -60 136 -60 146 0 6 -7 25 -14 42 -15 32 -48 123
-67 184 -21 68 -88 113 -146 99 -33 -9 -80 -58 -92 -99 -6 -18 -21 -61 -34
-97 -14 -36 -31 -81 -37 -100 -7 -19 -21 -53 -31 -76 -11 -23 -19 -44 -19 -47
0 -9 -76 -174 -107 -232 -75 -143 -171 -255 -218 -255 -10 0 -37 11 -61 25
-34 20 -46 34 -58 73 -23 69 -42 92 -76 92 -44 0 -49 -36 -16 -116 27 -68 67
-120 97 -129 11 -4 19 -13 19 -21 0 -11 17 -14 79 -14 l79 0 62 58 c68 61 111
121 160 217 11 22 24 47 29 55 20 32 91 190 91 202 0 7 9 27 20 43 11 17 20
37 20 45 0 8 9 33 20 55 11 22 19 46 20 53 0 8 7 28 15 45 8 18 20 50 27 72
11 33 18 40 38 40 20 0 27 -7 38 -40 7 -22 19 -54 27 -72 8 -17 15 -37 15 -45
1 -7 9 -31 20 -53 11 -22 19 -46 20 -52 0 -11 8 -30 60 -148 29 -65 110 -227
134 -267 39 -65 116 -158 141 -170 14 -6 25 -17 25 -25 0 -10 20 -13 80 -13
85 0 79 -3 162 78 63 61 97 248 118 642 12 231 33 315 122 485 34 66 59 135
78 220 10 43 23 81 29 83 16 5 14 42 -3 42 -7 0 -19 7 -26 15 -17 20 -33 19
-54 -4z"/>
</g>
</svg>
