<svg version="1.0" xmlns="http://www.w3.org/2000/svg"
 width="100%" viewBox="0 0 180.000000 180.000000"
 preserveAspectRatio="xMidYMid meet">
<metadata>
Created by potrace 1.15, written by Peter Selinger 2001-2017
</metadata>
<g transform="translate(0.000000,180.000000) scale(0.100000,-0.100000)"
fill="#000000" stroke="none">
<path d="M221 1594 c-112 -112 -207 -204 -212 -204 -5 0 -9 -11 -9 -25 0 -26
59 -89 93 -101 14 -4 42 17 112 85 51 50 96 91 101 91 16 0 144 -134 144 -150
0 -9 -38 -53 -85 -100 -52 -52 -85 -93 -85 -105 0 -28 561 -585 589 -585 23 0
32 18 19 42 -6 13 0 27 27 56 66 74 29 116 -42 47 -20 -19 -39 -35 -43 -35 -4
0 -26 20 -49 45 l-42 46 55 59 c40 43 53 65 49 80 -8 30 -26 25 -73 -20 -79
-76 -78 -76 -127 -28 -24 23 -43 47 -43 53 0 6 13 22 28 35 16 14 34 35 41 47
10 20 9 23 -15 29 -21 5 -33 0 -64 -31 l-38 -37 -46 42 c-25 23 -46 47 -46 51
0 5 25 35 55 66 31 31 54 63 53 72 -7 34 -40 22 -99 -34 l-60 -57 -25 23 c-13
12 -24 29 -24 36 0 21 215 233 236 233 9 0 50 -32 90 -71 46 -44 80 -69 91
-67 36 7 23 37 -46 108 -39 40 -71 80 -71 89 0 20 40 61 59 61 7 0 177 -164
378 -365 l365 -366 -18 -22 c-30 -35 -48 -46 -62 -38 -7 4 -126 121 -265 259
-256 255 -297 287 -297 229 0 -17 66 -89 250 -270 137 -136 254 -256 259 -265
8 -15 -10 -38 -107 -135 -65 -64 -122 -117 -128 -117 -15 0 -64 53 -64 70 0 7
22 37 50 66 54 57 61 79 31 87 -14 3 -37 -11 -76 -46 -42 -37 -65 -51 -88 -51
-55 -1 -44 -28 47 -120 47 -47 90 -86 96 -86 7 0 38 23 71 51 l59 52 39 -27
c41 -29 61 -27 91 9 7 8 21 13 30 10 10 -3 100 -87 201 -185 101 -99 191 -180
201 -180 12 0 18 8 18 23 0 17 -49 72 -176 198 -96 96 -180 182 -185 192 -8
14 -4 25 15 48 32 38 32 47 1 89 l-25 33 50 53 c28 29 50 61 50 71 0 25 -789
813 -815 813 -12 0 -54 -34 -105 -85 -47 -47 -93 -85 -102 -85 -18 0 -148 126
-148 143 0 5 41 51 91 102 68 70 89 98 85 112 -10 29 -75 93 -94 92 -9 0 -109
-92 -221 -205z m67 -81 c-156 -156 -179 -175 -193 -163 -14 12 3 33 162 192
158 158 179 176 193 163 13 -14 -5 -35 -162 -192z"/>
</g>
</svg>
